<svg width="1920" height="310" viewBox="0 0 1920 310" fill="none" xmlns="http://www.w3.org/2000/svg">
<g opacity="0.3">
<g style="mix-blend-mode:screen">
<path d="M152.18 251.678C159.396 251.749 166.581 250.786 173.491 248.822C204.351 239.759 215.891 212.147 226.083 187.783C235.945 164.194 242.791 149.737 258.571 149.737C288.264 149.737 303.304 170.175 319.232 191.822C336.133 214.788 353.608 238.533 389.26 238.533C422.527 238.533 439.428 235.166 455.777 231.907C472.279 228.615 487.866 225.507 519.943 225.507C554.138 225.507 571.42 216.122 588.128 207.048C604.255 198.287 619.483 190.021 650.627 190.021C685.948 190.021 703.418 170.444 720.319 151.512C736.253 133.678 751.282 116.827 781.305 116.827C811.112 116.827 826.152 135.899 842.074 156.089C858.975 177.522 876.457 199.686 911.989 199.686C943.235 199.686 958.492 207.371 974.647 215.508C991.326 223.909 1008.57 232.595 1042.67 232.595C1075.2 232.595 1091.74 233.364 1107.73 234.101C1123.86 234.849 1140.54 235.623 1173.35 235.623C1209.36 235.623 1226.8 206.172 1243.66 177.688C1259.6 150.732 1274.7 125.271 1304.03 125.271C1333.35 125.271 1348.41 151.141 1364.35 178.517C1381.21 207.441 1398.64 237.35 1434.68 237.35C1471.43 237.35 1483.14 196.362 1494.43 156.724C1506.91 113.041 1516.27 86.924 1541.26 92.3077C1562.19 96.8416 1564.52 109.567 1567.76 127.181C1571.61 148.156 1576.4 174.284 1620.62 184.266C1635.74 187.676 1650.08 197.809 1666.72 209.544C1691.53 227.061 1719.64 246.912 1759.42 249.93C1804.88 253.372 1856.65 233.666 1917.68 189.66C1918.28 189.231 1918.77 188.695 1919.15 188.083C1919.53 187.471 1919.77 186.795 1919.87 186.094C1919.97 185.393 1919.92 184.68 1919.73 183.996C1919.54 183.313 1919.2 182.671 1918.75 182.109C1918.3 181.547 1917.73 181.075 1917.08 180.72C1916.43 180.365 1915.72 180.134 1914.98 180.04C1914.23 179.946 1913.48 179.991 1912.76 180.173C1912.03 180.354 1911.36 180.669 1910.76 181.098C1852.07 223.415 1802.86 242.411 1760.33 239.184C1723.85 236.414 1697.12 217.552 1673.54 200.906C1656.64 188.983 1640.69 177.721 1623.29 173.794C1586.36 165.458 1582.79 145.972 1579.01 125.341C1575.79 107.813 1572.14 87.9459 1543.82 81.8146C1506.34 73.6988 1494.71 114.482 1483.45 153.922C1473.24 189.644 1462.69 226.582 1434.67 226.582C1405.37 226.582 1390.29 200.713 1374.35 173.337C1357.48 144.407 1340.07 114.504 1304.03 114.504C1267.99 114.504 1250.58 143.956 1233.72 172.434C1217.78 199.39 1202.68 224.851 1173.35 224.851C1140.82 224.851 1124.28 224.087 1108.29 223.345C1092.16 222.597 1075.48 221.828 1042.67 221.828C1011.42 221.828 996.163 214.142 980.008 206.005C963.329 197.604 946.081 188.913 911.989 188.913C882.176 188.913 867.136 169.847 851.219 149.651C834.312 128.219 816.837 106.055 781.305 106.055C745.984 106.055 728.508 125.632 711.607 144.563C695.673 162.398 680.65 179.243 650.627 179.243C616.438 179.243 599.156 188.628 582.448 197.706C566.321 206.462 551.094 214.734 519.943 214.734C486.676 214.734 469.775 218.101 453.426 221.36C436.924 224.652 421.337 227.76 389.26 227.76C359.566 227.76 344.521 207.323 328.593 185.675C311.692 162.71 294.216 138.965 258.599 138.965C234.266 138.965 225.15 160.752 215.504 183.825C205.83 207.016 195.781 231.003 170.139 238.533C137.259 248.182 84.2119 229.347 7.95846 180.91C7.33783 180.514 6.64065 180.238 5.90686 180.097C5.17306 179.956 4.4171 179.954 3.68228 180.09C2.94747 180.226 2.24824 180.497 1.6247 180.889C1.00116 181.281 0.465584 181.785 0.048613 182.373C-0.369976 182.96 -0.661872 183.619 -0.810354 184.313C-0.958835 185.006 -0.961 185.721 -0.816675 186.415C-0.67235 187.11 -0.384377 187.771 0.0306911 188.36C0.445759 188.949 0.979767 189.455 1.60212 189.849C66.7533 231.267 116.375 251.651 152.18 251.678Z" fill="#151427"/>
<path d="M149.813 249.634C156.611 249.689 163.385 248.862 169.946 247.176C200.379 239.109 212.915 213.745 223.972 191.382C234.818 169.433 242.284 155.982 258.309 155.982C288.269 155.982 303.372 173.552 319.357 192.156C336.326 211.894 353.87 232.289 389.26 232.289C422.316 232.289 439.12 230.138 455.373 228.029C471.978 225.878 487.661 223.872 519.943 223.872C554.314 223.872 571.648 213.153 588.412 202.784C604.482 192.844 619.659 183.454 650.627 183.454C685.635 183.454 702.98 166.83 719.756 150.754C735.843 135.34 751.054 120.775 782.272 120.205C811.994 119.565 826.721 139.26 842.359 160.005C858.981 182.056 876.178 204.876 911.693 204.876C943.304 204.876 958.77 210.485 975.137 216.423C991.753 222.452 1008.94 228.685 1042.67 228.685C1075.16 228.685 1091.68 229.67 1107.65 230.627C1123.8 231.595 1140.5 232.59 1173.35 232.59C1209.35 232.59 1226.8 203.241 1243.66 174.854C1259.59 147.995 1274.69 122.62 1304.03 122.62C1333.45 122.62 1348.52 146.58 1364.47 171.944C1381.35 198.787 1398.8 226.545 1434.71 226.545C1471.22 226.545 1483.78 188.757 1494.87 155.411C1507.6 117.118 1517.14 94.244 1542.46 99.4771C1563.91 103.86 1566.66 115.408 1570.46 131.387C1574.97 150.383 1580.59 174.02 1624.26 183.459C1639.58 186.751 1654.09 196.824 1670.88 208.495C1695.5 225.604 1723.4 244.987 1762.54 247.994C1807.28 251.43 1858.02 232.348 1917.7 189.671C1918.91 188.808 1919.71 187.527 1919.91 186.11C1920.12 184.693 1919.73 183.256 1918.81 182.115C1917.9 180.974 1916.54 180.222 1915.04 180.025C1913.55 179.829 1912.02 180.203 1910.82 181.066C1853.47 222.07 1805.26 240.469 1763.46 237.253C1727.55 234.499 1701.03 216.068 1677.63 199.815C1660.56 187.95 1644.43 176.742 1626.79 172.955C1590.14 165.028 1585.98 147.538 1581.58 129.026C1577.76 112.971 1573.44 94.7765 1544.88 88.9518C1507.55 81.2447 1495.59 117.333 1483.99 152.206C1473.12 184.911 1462.85 215.799 1434.71 215.799C1405.28 215.799 1390.22 191.839 1374.27 166.469C1357.39 139.626 1339.94 111.874 1304.03 111.874C1268.02 111.874 1250.58 141.223 1233.72 169.61C1217.79 196.469 1202.68 221.844 1173.35 221.844C1140.86 221.844 1124.34 220.855 1108.37 219.903C1092.22 218.935 1075.52 217.934 1042.67 217.934C1011.06 217.934 995.594 212.33 979.222 206.387C962.606 200.358 945.42 194.124 911.693 194.124C882.05 194.124 867.306 174.531 851.646 153.787C835.211 131.984 818.225 109.443 783.547 109.443H782.05C746.2 110.099 728.622 126.928 711.641 143.197C695.816 158.375 680.878 172.697 650.627 172.697C616.256 172.697 598.928 183.422 582.164 193.786C566.094 203.73 550.917 213.121 519.943 213.121C486.887 213.121 470.083 215.272 453.83 217.375C437.225 219.526 421.542 221.538 389.26 221.538C359.299 221.538 344.196 203.967 328.206 185.363C311.242 165.598 293.693 145.209 258.309 145.209C234.215 145.209 224.222 165.42 213.638 186.821C203.133 208.076 192.264 230.057 166.861 236.801C133.856 245.568 81.856 227.276 7.90721 180.867C7.28371 180.474 6.58428 180.202 5.84907 180.065C5.11387 179.929 4.35737 179.93 3.62297 180.071C2.88857 180.211 2.19073 180.487 1.56952 180.883C0.948314 181.279 0.41597 181.787 0.003021 182.378C-0.411895 182.967 -0.699824 183.627 -0.84431 184.321C-0.988797 185.016 -0.987005 185.73 -0.838996 186.423C-0.690988 187.117 -0.399701 187.776 0.018199 188.363C0.436099 188.949 0.972398 189.453 1.59637 189.843C65.4501 229.917 114.252 249.634 149.813 249.634Z" fill="url(#paint0_linear_1_609)"/>
<path d="M147.599 247.622C153.903 247.664 160.188 246.978 166.315 245.578C196.413 238.511 209.922 215.369 221.844 194.958C233.697 174.666 241.761 162.231 258.047 162.231C288.321 162.231 303.497 176.946 319.573 192.527C336.599 209.028 354.183 226.082 389.26 226.082C422.106 226.082 438.802 225.109 454.952 224.173C470.925 223.242 487.45 222.28 519.943 222.28C554.485 222.28 571.858 210.222 588.663 198.561C604.687 187.439 619.83 176.93 650.627 176.93C685.339 176.93 702.559 163.226 719.204 149.974C735.467 137.023 750.826 124.787 783.24 123.62C812.671 122.593 827.262 142.675 842.615 163.957C858.97 186.643 875.876 210.103 911.397 210.103C943.406 210.103 959.101 213.604 975.7 217.31C992.202 221 1009.31 224.813 1042.65 224.813C1075.09 224.813 1091.59 226.018 1107.52 227.185C1123.69 228.373 1140.41 229.594 1173.3 229.594C1209.3 229.594 1226.74 200.347 1243.61 172.046C1259.54 145.279 1274.64 119.995 1303.98 119.995C1333.57 119.995 1348.6 142.046 1364.54 165.41C1381.43 190.15 1398.88 215.756 1434.67 215.756C1470.87 215.756 1483.77 183.034 1495.15 154.158C1508.14 121.221 1517.87 101.601 1543.56 106.609C1565.57 110.836 1568.73 121.205 1573.1 135.56C1578.28 152.555 1584.73 173.714 1627.79 182.62C1643.34 185.783 1658.7 196.286 1674.96 207.409C1699.38 224.114 1727.06 243.04 1765.57 246.036C1809.56 249.451 1859.31 231.014 1917.63 189.66C1918.84 188.804 1919.64 187.53 1919.85 186.118C1920.07 184.706 1919.68 183.272 1918.77 182.131C1917.87 180.99 1916.52 180.235 1915.03 180.033C1913.53 179.832 1912.01 180.199 1910.81 181.055C1854.81 220.758 1807.62 238.511 1766.51 235.311C1731.18 232.563 1704.87 214.573 1681.65 198.696C1664.39 186.896 1648.08 175.741 1630.22 172.106C1593.8 164.576 1589.08 149.038 1584.07 132.591C1579.64 118.07 1574.62 101.591 1545.87 96.0725C1508.73 88.8064 1495.86 121.539 1484.48 150.393C1473.42 178.463 1462.96 204.978 1434.68 204.978C1405.09 204.978 1390.06 182.927 1374.12 159.563C1357.23 134.823 1339.77 109.212 1303.99 109.212C1268 109.212 1250.55 138.464 1233.69 166.759C1217.76 193.565 1202.7 218.843 1173.35 218.843C1140.91 218.843 1124.41 217.633 1108.45 216.466C1092.28 215.283 1075.56 214.056 1042.67 214.056C1010.66 214.056 994.962 210.555 978.369 206.849C961.866 203.16 944.76 199.347 911.425 199.347C881.937 199.347 867.426 179.221 852.067 157.934C835.638 135.146 818.646 111.616 782.836 112.874C746.507 114.192 728.115 128.837 711.886 141.761C696.089 154.303 681.185 166.136 650.627 166.136C616.091 166.136 598.718 178.194 581.914 189.859C565.889 200.982 550.746 211.491 519.943 211.491C487.098 211.491 470.401 212.464 454.252 213.4C438.278 214.331 421.753 215.293 389.26 215.293C358.992 215.293 343.809 200.573 327.734 184.992C310.719 168.513 293.124 151.453 258.07 151.453C234.249 151.453 222.879 170.922 211.891 189.752C200.567 209.114 188.856 229.185 163.589 235.123C130.453 242.905 79.5229 225.157 7.89592 180.872C7.27011 180.483 6.56922 180.215 5.83341 180.082C5.09759 179.95 4.34132 179.956 3.60803 180.1C2.87474 180.245 2.17883 180.525 1.56021 180.924C0.941595 181.323 0.412457 181.834 0.003124 182.426C-0.408227 183.018 -0.6919 183.681 -0.831599 184.377C-0.971299 185.072 -0.96426 185.787 -0.810934 186.48C-0.657608 187.173 -0.361002 187.831 0.0618912 188.415C0.484784 189 1.02564 189.5 1.6534 189.886C64.2097 228.583 112.255 247.622 147.599 247.622Z" fill="url(#paint1_linear_1_609)"/>
<path d="M145.488 245.664C149.795 245.676 154.096 245.376 158.354 244.766C191.063 239.99 206.286 217.945 219.715 198.513C231.324 181.733 240.429 168.475 257.791 168.475C288.423 168.475 303.714 180.361 319.903 192.941C336.935 206.177 354.542 219.859 389.26 219.859C421.889 219.859 438.483 220.064 454.525 220.263C470.566 220.462 487.234 220.666 519.966 220.666C554.679 220.666 572.075 207.269 588.907 194.312C604.903 182.002 620.006 170.379 650.65 170.379C685.174 170.379 702.235 159.552 718.743 149.086C734.466 139.11 750.729 128.799 784.23 127.003C813.508 125.438 827.808 146.058 842.877 167.905C858.241 190.134 875.597 215.331 911.123 215.331C943.56 215.331 960.244 216.745 976.4 218.111C992.8 219.499 1009.76 220.935 1042.69 220.935C1075.13 220.935 1091.58 222.366 1107.51 223.748C1123.7 225.152 1140.44 226.604 1173.37 226.604C1209.37 226.604 1226.81 197.448 1243.67 169.26C1259.61 142.584 1274.71 117.387 1304.05 117.387C1333.77 117.387 1348.81 137.555 1364.73 158.907C1381.63 181.561 1399.11 204.988 1434.73 204.988C1470.58 204.988 1483.79 177.387 1495.46 153.034C1508.64 125.524 1518.08 108.932 1544.78 113.772C1567.35 117.887 1571.11 127.578 1575.88 139.852C1581.71 154.852 1588.97 173.52 1631.45 181.803C1647.16 184.863 1662.66 195.297 1679.07 206.349C1727.96 239.264 1788.8 280.236 1917.67 189.676C1918.28 189.254 1918.78 188.725 1919.17 188.117C1919.55 187.51 1919.8 186.837 1919.91 186.138C1920.02 185.438 1919.99 184.724 1919.8 184.038C1919.62 183.352 1919.3 182.707 1918.85 182.139C1918.4 181.571 1917.84 181.092 1917.2 180.729C1916.56 180.365 1915.85 180.125 1915.11 180.022C1914.36 179.919 1913.61 179.955 1912.88 180.127C1912.16 180.3 1911.48 180.606 1910.87 181.028C1856.19 219.451 1809.95 236.575 1769.58 233.397C1734.81 230.654 1708.69 213.077 1685.69 197.572C1668.27 185.847 1651.82 174.768 1633.75 171.25C1597.48 164.178 1592.21 150.56 1586.58 136.135C1581.54 123.163 1575.83 108.464 1546.94 103.188C1510.05 96.4865 1496.78 124.163 1485.07 148.565C1473.83 172.03 1463.21 194.194 1434.73 194.194C1405.01 194.194 1389.97 174.026 1374.04 152.674C1357.14 130.02 1339.67 106.592 1304.05 106.592C1268.06 106.592 1250.62 135.743 1233.75 163.936C1217.82 190.607 1202.71 215.804 1173.37 215.804C1140.94 215.804 1124.49 214.374 1108.55 212.997C1092.36 211.593 1075.62 210.141 1042.69 210.141C1010.26 210.141 993.568 208.726 977.418 207.36C961.013 205.967 944.049 204.531 911.123 204.531C881.772 204.531 867.517 183.873 852.425 161.994C836.247 138.55 819.534 114.278 783.57 116.225C746.957 118.183 728.588 129.837 712.381 140.115C695.912 150.56 681.686 159.585 650.638 159.585C615.926 159.585 598.536 172.977 581.703 185.938C565.707 198.244 550.604 209.872 519.955 209.872C487.325 209.872 470.731 209.668 454.69 209.469C438.648 209.27 421.98 209.06 389.248 209.06C358.616 209.06 343.326 197.179 327.13 184.599C310.104 171.363 292.498 157.681 257.78 157.681C234.266 157.681 222.009 175.429 210.155 192.586C184.77 229.352 155.998 271.029 7.82755 180.829C7.19864 180.445 6.49579 180.183 5.75927 180.056C5.02276 179.929 4.26704 179.941 3.53543 180.091C2.80382 180.241 2.11071 180.526 1.49577 180.929C0.880829 181.333 0.35614 181.847 -0.0481898 182.443C-0.454237 183.037 -0.732175 183.701 -0.866138 184.397C-1.0001 185.093 -0.987456 185.808 -0.82887 186.499C-0.670284 187.191 -0.368887 187.846 0.0580219 188.427C0.484931 189.008 1.02896 189.504 1.65898 189.886C63.1056 227.314 110.371 245.659 145.488 245.664Z" fill="url(#paint2_linear_1_609)"/>
<path d="M143.957 243.804C183.347 243.804 201.568 221.57 217.599 202.004C229.617 187.364 239.957 174.741 257.529 174.741C288.582 174.741 304.032 183.798 320.393 193.393C337.385 203.354 354.963 213.653 389.248 213.653C421.685 213.653 438.153 215.025 454.121 216.342C470.305 217.682 487.041 219.075 519.96 219.075C554.809 219.075 572.245 204.338 589.106 190.091C605.068 176.602 620.154 163.856 650.644 163.856C685.18 163.856 701.37 156.208 718.51 148.108C734.409 140.578 750.849 132.834 785.18 130.413C814.356 128.359 827.672 148.517 843.093 171.859C858.179 194.689 875.279 220.57 910.81 220.57C943.639 220.57 960.626 219.677 977.054 218.811C993.329 217.956 1010.16 217.074 1042.67 217.074C1075.04 217.074 1091.49 218.72 1107.41 220.301C1123.62 221.914 1140.38 223.603 1173.35 223.603C1209.34 223.603 1226.78 194.56 1243.65 166.459C1259.58 139.879 1274.68 114.773 1304.03 114.773C1333.91 114.773 1348.95 133.059 1364.87 152.421C1381.77 172.972 1399.25 194.222 1434.71 194.222C1470.04 194.222 1483.6 171.772 1495.56 151.964C1507.67 131.898 1517.25 116.043 1545.91 120.969C1569.13 124.949 1573.35 133.425 1578.69 144.155C1585.52 157.821 1593.21 173.316 1635.03 181.029C1650.96 183.965 1666.62 194.345 1683.21 205.328C1731.58 237.399 1791.84 277.311 1917.66 189.731C1918.26 189.311 1918.77 188.783 1919.16 188.178C1919.54 187.572 1919.8 186.901 1919.91 186.201C1920.02 185.502 1919.99 184.788 1919.81 184.101C1919.63 183.415 1919.31 182.768 1918.87 182.198C1918.42 181.629 1917.86 181.147 1917.22 180.782C1916.58 180.416 1915.87 180.173 1915.13 180.067C1914.39 179.961 1913.64 179.993 1912.91 180.163C1912.18 180.333 1911.5 180.636 1910.9 181.055C1791.67 264.021 1737.51 228.142 1689.73 196.491C1672.13 184.831 1655.51 173.816 1637.2 170.433C1601.07 163.77 1595.21 152.007 1589.01 139.551C1583.08 127.638 1576.95 115.322 1547.95 110.352C1511.33 104.07 1497.69 126.67 1485.66 146.607C1474.22 165.544 1463.43 183.427 1434.71 183.427C1404.83 183.427 1389.79 165.141 1373.87 145.779C1356.97 125.229 1339.49 103.984 1304.03 103.984C1268.04 103.984 1250.6 133.027 1233.73 161.129C1217.8 187.708 1202.7 212.814 1173.35 212.814C1140.98 212.814 1124.52 211.169 1108.61 209.587C1092.4 207.974 1075.64 206.285 1042.67 206.285C1009.84 206.285 992.851 207.178 976.423 208.044C960.148 208.899 943.321 209.781 910.81 209.781C881.584 209.781 867.562 188.585 852.767 166.141C836.833 142.041 820.359 117.118 784.344 119.662C747.765 122.238 729.521 130.854 713.422 138.459C696.811 146.295 682.471 153.067 650.627 153.067C615.784 153.067 598.348 167.798 581.487 182.045C565.553 195.539 550.439 208.28 519.943 208.28C487.507 208.28 471.039 206.914 455.099 205.591C438.916 204.247 422.18 202.859 389.26 202.859C358.212 202.859 342.762 193.802 326.402 184.213C309.404 174.247 291.832 163.947 257.546 163.947C234.386 163.947 221.275 179.937 208.607 195.405C181.395 228.61 150.564 266.248 7.82761 180.824C7.19518 180.444 6.4895 180.186 5.7511 180.064C5.0127 179.942 4.25614 179.959 3.52486 180.115C2.79357 180.27 2.10196 180.561 1.48978 180.969C0.877603 181.378 0.356888 181.897 -0.042436 182.497C-0.444108 183.094 -0.717133 183.76 -0.845866 184.457C-0.974598 185.155 -0.9565 185.869 -0.792621 186.559C-0.628742 187.25 -0.322311 187.903 0.109136 188.481C0.540583 189.06 1.08857 189.552 1.72166 189.93C68.5743 229.933 112.852 243.799 143.957 243.804Z" fill="url(#paint3_linear_1_609)"/>
<path d="M142.398 241.819C179.955 241.819 198.837 222.506 215.51 205.467C228.376 192.323 239.49 180.969 257.273 180.969C288.799 180.969 304.47 187.187 321.058 193.77C337.959 200.471 355.435 207.404 389.26 207.404C421.468 207.404 437.123 209.808 453.688 212.352C469.975 214.858 486.813 217.44 519.943 217.44C554.935 217.44 572.388 201.375 589.266 185.842C605.199 171.159 620.274 157.294 650.627 157.294C685.908 157.294 701.37 152.453 719.289 146.898C734.529 142.154 751.799 136.776 786.125 133.785C815.09 131.263 828.161 151.894 843.286 175.774C858.122 199.207 874.937 225.792 910.515 225.792C943.747 225.792 961.013 222.538 977.703 219.392C994.604 216.202 1010.56 213.196 1042.67 213.196C1075 213.196 1091.43 215.062 1107.33 216.864C1123.56 218.709 1140.33 220.629 1173.34 220.629C1209.32 220.629 1226.76 191.677 1243.63 163.678C1259.57 137.19 1274.66 112.175 1304.02 112.175C1334.09 112.175 1349.13 128.579 1365.05 145.951C1381.95 164.383 1399.42 183.449 1434.7 183.449C1469.36 183.449 1483.2 166.238 1495.41 151.007C1507.8 135.592 1517.57 123.411 1547.05 128.144C1570.99 131.984 1575.68 139.255 1581.63 148.463C1589.08 159.999 1597.52 173.074 1638.59 180.227C1654.75 183.035 1670.57 193.355 1687.33 204.279C1735.23 235.505 1794.85 274.363 1917.61 189.757C1918.83 188.916 1919.64 187.65 1919.88 186.239C1920.11 184.828 1919.74 183.387 1918.85 182.233C1917.96 181.079 1916.62 180.307 1915.13 180.086C1913.64 179.865 1912.11 180.214 1910.89 181.055C1794.66 261.149 1741.09 226.233 1693.8 195.405C1676.01 183.804 1659.21 172.853 1640.65 169.621C1604.6 163.345 1597.87 152.921 1591.36 142.842C1584.85 132.763 1578.02 122.179 1548.96 117.516C1512.67 111.702 1499.28 128.364 1486.36 144.488C1474.72 158.977 1463.73 172.665 1434.73 172.665C1404.66 172.665 1389.62 156.261 1373.69 138.889C1356.8 120.458 1339.32 101.392 1304.04 101.392C1268.06 101.392 1250.62 130.343 1233.75 158.343C1217.82 184.831 1202.72 209.845 1173.37 209.845C1141.03 209.845 1124.6 207.979 1108.71 206.172C1092.48 204.333 1075.7 202.407 1042.69 202.407C1009.46 202.407 992.191 205.666 975.495 208.807C958.6 211.997 942.643 215.003 910.537 215.003C881.424 215.003 867.659 193.269 853.091 170.256C837.425 145.515 821.196 119.942 785.101 123.066C749.461 126.159 731.524 131.715 715.721 136.663C698.735 141.955 684.07 146.521 650.627 146.521C615.641 146.521 598.188 162.586 581.31 178.119C565.377 192.801 550.302 206.667 519.943 206.667C487.735 206.667 472.086 204.263 455.515 201.719C439.229 199.218 422.39 196.631 389.26 196.631C357.734 196.631 342.062 190.414 325.474 183.83C308.573 177.129 291.092 170.191 257.273 170.191C234.511 170.191 220.592 184.406 207.139 198.158C178.089 227.841 145.158 261.493 7.75928 180.808C7.124 180.434 6.41682 180.182 5.67829 180.066C4.93976 179.951 4.18438 179.974 3.45542 180.135C2.72646 180.296 2.03825 180.591 1.43021 181.004C0.822164 181.416 0.306265 181.938 -0.0879809 182.54C-0.48481 183.14 -0.752236 183.809 -0.874913 184.508C-0.997589 185.206 -0.973125 185.921 -0.802878 186.61C-0.63263 187.3 -0.319972 187.951 0.117149 188.526C0.554269 189.101 1.10725 189.589 1.74436 189.962C67.5556 228.599 111.356 241.819 142.398 241.819Z" fill="url(#paint4_linear_1_609)"/>
<path d="M141.282 239.926C176.877 239.926 196.304 223.453 213.49 208.888C227.21 197.26 239.058 187.214 257.011 187.214C289.066 187.214 305.017 190.543 321.884 194.071C338.648 197.567 355.947 201.181 389.26 201.181C421.263 201.181 436.816 204.666 453.284 208.361C469.667 212.029 486.608 215.832 519.943 215.832C555.065 215.832 572.53 198.433 589.425 181.609C605.359 165.743 620.404 150.754 650.627 150.754C691.098 150.754 705.427 148.49 727.108 145.058C740.862 142.907 757.985 140.175 787.081 137.174C815.858 134.184 828.662 155.293 843.486 179.705C858.07 203.746 874.607 230.988 910.219 230.988C943.838 230.988 961.348 225.324 978.289 219.849C995.082 214.417 1010.95 209.286 1042.67 209.286C1074.96 209.286 1091.37 211.373 1107.25 213.39C1123.49 215.455 1140.3 217.59 1173.35 217.59C1209.33 217.59 1226.77 188.741 1243.64 160.838C1259.57 134.442 1274.66 109.513 1304.03 109.513C1334.3 109.513 1349.35 124.035 1365.29 139.449C1382.18 155.761 1399.64 172.628 1434.72 172.628C1468.39 172.628 1482.43 160.677 1494.81 150.136C1507.57 139.271 1517.65 130.698 1548.22 135.265C1572.95 138.965 1578.43 145.354 1584.77 152.744C1592.82 162.14 1601.95 172.789 1642.19 179.372C1658.58 182.061 1674.59 192.318 1691.53 203.176C1738.92 233.558 1797.91 271.373 1917.6 189.731C1918.83 188.895 1919.65 187.633 1919.89 186.223C1920.13 184.813 1919.77 183.37 1918.89 182.212C1918 181.054 1916.67 180.275 1915.18 180.047C1913.68 179.819 1912.16 180.16 1910.93 180.996C1797.69 258.213 1744.69 224.227 1697.93 194.243C1679.94 182.712 1662.95 171.821 1644.14 168.739C1608.11 162.823 1600.74 154.255 1593.62 145.946C1586.5 137.636 1579.06 128.956 1550 124.605C1514.05 119.226 1500.39 130.865 1487.18 142.111C1475.28 152.271 1464.01 161.833 1434.71 161.833C1404.44 161.833 1389.38 147.312 1373.44 131.898C1356.56 115.591 1339.1 98.7244 1304.02 98.7244C1268.04 98.7244 1250.6 127.574 1233.73 155.476C1217.79 181.868 1202.7 206.796 1173.34 206.796C1141.05 206.796 1124.63 204.715 1108.76 202.692C1092.51 200.632 1075.71 198.497 1042.66 198.497C1009.04 198.497 991.525 204.161 974.585 209.636C957.792 215.068 941.932 220.193 910.207 220.193C881.185 220.193 867.676 197.916 853.359 174.333C837.954 148.952 822.061 122.701 785.829 126.466C756.409 129.504 739.115 132.237 725.219 134.436C703.344 137.895 690.142 139.981 650.616 139.981C615.499 139.981 598.035 157.38 581.14 174.203C565.206 190.069 550.154 205.059 519.932 205.059C487.928 205.059 472.376 201.574 455.908 197.884C439.439 194.195 422.584 190.414 389.248 190.414C357.199 190.414 341.243 187.085 324.376 183.556C307.634 180.06 290.318 176.446 257.023 176.446C234.71 176.446 220.063 188.865 205.893 200.869C174.965 227.078 139.883 256.803 7.72517 180.781C7.08616 180.413 6.37646 180.167 5.63675 180.058C4.89704 179.949 4.14186 179.979 3.41447 180.146C2.68708 180.314 2.00178 180.615 1.39784 181.033C0.793896 181.451 0.283191 181.978 -0.105034 182.583C-0.495939 183.187 -0.756732 183.858 -0.87248 184.558C-0.988228 185.258 -0.95666 185.972 -0.779536 186.66C-0.602413 187.348 -0.283226 187.996 0.159662 188.568C0.60255 189.139 1.16042 189.622 1.80129 189.989C66.7817 227.352 110.201 239.921 141.282 239.926Z" fill="url(#paint5_linear_1_609)"/>
<path d="M140.742 238.135C174.265 238.135 194.04 224.421 211.601 212.244C226.14 202.165 238.693 193.463 256.755 193.463C289.362 193.463 306.4 193.839 322.874 194.205C339.348 194.571 356.516 194.958 389.26 194.958C421.064 194.958 436.531 199.514 452.903 204.343C469.406 209.184 486.403 214.218 519.943 214.218C555.191 214.218 572.661 195.491 589.562 177.387C605.495 160.327 620.53 144.208 650.627 144.208C671.363 144.208 685.146 144.779 696.22 145.247C720.427 146.252 735.041 146.86 788.031 140.562C816.615 137.147 829.157 158.698 843.673 183.642C858.019 208.275 874.271 236.204 909.923 236.204C943.901 236.204 961.633 228.099 978.779 220.268C995.503 212.62 1011.31 205.403 1042.67 205.403C1074.92 205.403 1090.59 207.603 1107.17 209.931C1123.44 212.217 1140.26 214.584 1173.35 214.584C1209.32 214.584 1226.77 185.831 1243.63 158.025C1259.57 131.731 1274.66 106.888 1304.03 106.888C1334.53 106.888 1349.61 119.57 1365.58 133C1382.44 147.177 1399.87 161.833 1434.71 161.833C1466.77 161.833 1480.77 155.186 1493.12 149.318C1505.97 143.214 1517.07 137.937 1549.36 142.423C1574.97 145.983 1581.07 151.114 1588.11 157.057C1596.7 164.313 1606.44 172.531 1645.77 178.57C1662.41 181.12 1678.59 191.322 1695.72 202.122C1742.6 231.676 1800.93 268.453 1917.57 189.779C1918.18 189.368 1918.7 188.847 1919.1 188.247C1919.49 187.647 1919.76 186.979 1919.88 186.281C1920.01 185.583 1919.98 184.869 1919.81 184.179C1919.65 183.49 1919.34 182.839 1918.9 182.263C1918.47 181.687 1917.92 181.197 1917.28 180.822C1916.65 180.448 1915.94 180.195 1915.2 180.078C1914.46 179.961 1913.71 179.983 1912.98 180.143C1912.25 180.302 1911.56 180.596 1910.95 181.007C1800.72 255.362 1748.3 222.312 1702.05 193.156C1683.84 181.69 1666.68 170.858 1647.6 167.938C1611.55 162.414 1603.49 155.616 1595.7 149.038C1588 142.53 1580.03 135.808 1551.02 131.779C1515.16 126.804 1501.97 133.065 1488 139.707C1476.23 145.295 1464.06 151.077 1434.71 151.077C1404.2 151.077 1389.12 138.395 1373.16 124.965C1356.3 110.788 1338.87 96.1318 1304.03 96.1318C1268.06 96.1318 1250.61 124.879 1233.74 152.685C1217.81 178.985 1202.71 203.822 1173.35 203.822C1141.1 203.822 1125.43 201.622 1108.85 199.293C1092.58 197.007 1075.76 194.646 1042.67 194.646C1008.69 194.646 990.962 202.746 973.816 210.582C957.086 218.225 941.289 225.442 909.923 225.442C881.009 225.442 867.727 202.622 853.66 178.463C838.506 152.443 822.857 125.546 786.609 129.87C734.568 136.06 721.127 135.501 696.726 134.479C685.539 134.011 671.614 133.43 650.633 133.43C615.391 133.43 597.921 152.152 581.02 170.261C565.087 187.321 550.052 203.44 519.949 203.44C488.145 203.44 472.678 198.884 456.306 194.055C439.832 189.214 422.806 184.18 389.266 184.18C356.659 184.18 339.621 183.804 323.147 183.438C306.673 183.072 289.499 182.685 256.761 182.685C234.966 182.685 220.341 192.823 204.863 203.558C172.017 226.33 134.784 252.14 7.66832 180.749C7.02525 180.386 6.31273 180.147 5.5716 180.044C4.83046 179.942 4.07532 179.98 3.34945 180.154C2.62358 180.328 1.94126 180.637 1.34164 181.061C0.742022 181.485 0.236886 182.017 -0.1448 182.626C-0.528474 183.234 -0.781332 183.908 -0.888872 184.608C-0.996412 185.309 -0.956522 186.023 -0.771477 186.709C-0.586431 187.395 -0.259859 188.04 0.189464 188.606C0.638788 189.173 1.20203 189.65 1.84689 190.01C66.2981 226.211 109.489 238.135 140.742 238.135Z" fill="url(#paint6_linear_1_609)"/>
<path d="M909.638 241.432C943.941 241.432 961.855 230.874 979.177 220.666C995.873 210.824 1011.61 201.53 1042.68 201.53C1074.89 201.53 1090.54 203.94 1107.1 206.489C1123.39 208.995 1140.23 211.588 1173.36 211.588C1209.33 211.588 1226.77 182.938 1243.64 155.228C1259.61 129.025 1274.65 104.285 1304.03 104.285C1334.76 104.285 1349.91 115.117 1365.92 126.584C1382.74 138.62 1400.12 151.066 1434.71 151.066C1462.03 151.066 1475.97 149.377 1487.18 148.022C1502.99 146.102 1513.44 144.843 1550.51 149.597C1577.13 153.013 1583.9 156.863 1591.74 161.317C1600.78 166.464 1611.04 172.294 1649.36 177.758C1666.25 180.162 1682.61 190.311 1699.94 201.046C1746.28 229.772 1803.96 265.527 1917.55 189.8C1918.16 189.392 1918.68 188.874 1919.08 188.275C1919.48 187.677 1919.75 187.01 1919.88 186.313C1920.01 185.615 1919.99 184.901 1919.82 184.211C1919.66 183.52 1919.35 182.868 1918.92 182.289C1918.49 181.711 1917.94 181.219 1917.3 180.841C1916.67 180.464 1915.97 180.207 1915.23 180.087C1914.49 179.967 1913.73 179.985 1913 180.141C1912.27 180.297 1911.58 180.588 1910.97 180.996C1803.73 252.495 1751.91 220.376 1706.19 192.038C1687.79 180.636 1670.41 169.863 1651.06 167.104C1614.98 161.957 1606.15 156.939 1597.61 152.088C1589.08 147.236 1580.99 142.633 1552.04 138.916C1513.49 133.973 1501.85 135.383 1485.73 137.335C1474.85 138.653 1461.3 140.293 1434.71 140.293C1403.98 140.293 1388.83 129.461 1372.81 117.994C1356 105.958 1338.61 93.5071 1304.03 93.5071C1268.06 93.5071 1250.62 122.157 1233.75 149.866C1217.82 176.069 1202.72 200.826 1173.35 200.826C1141.14 200.826 1125.49 198.416 1108.93 195.862C1092.64 193.355 1075.8 190.763 1042.67 190.763C1008.37 190.763 990.455 201.321 973.133 211.529C956.437 221.371 940.697 230.665 909.627 230.665C880.804 230.665 867.756 207.301 853.939 182.561C839.075 155.917 823.711 128.407 787.377 133.274C742.006 139.379 725.736 136.195 706.906 132.516C693.397 129.875 678.135 126.874 650.627 126.874C615.271 126.874 597.79 146.919 580.889 166.308C564.956 184.594 549.927 201.805 519.943 201.805C488.338 201.805 472.951 196.179 456.659 190.225C440.105 184.207 422.993 177.968 389.26 177.968C356.101 177.968 338.716 180.802 321.906 183.54C304.835 186.32 288.679 188.95 256.465 188.95C235.29 188.95 220.154 197.362 204.112 206.274C169.28 225.636 129.805 247.595 7.56017 180.732C6.91262 180.377 6.1971 180.145 5.45465 180.051C4.71221 179.957 3.95744 180.003 3.23366 180.185C2.50988 180.367 1.83134 180.683 1.23693 181.114C0.642511 181.545 0.143937 182.082 -0.230203 182.695C-0.606501 183.308 -0.85117 183.984 -0.950136 184.686C-1.0491 185.388 -1.00045 186.102 -0.806934 186.786C-0.613423 187.47 -0.278856 188.111 0.177521 188.673C0.633897 189.234 1.20312 189.705 1.85252 190.058C129.856 260.073 172.376 236.419 209.899 215.562C225.178 207.065 238.352 199.723 256.448 199.723C289.612 199.723 306.991 196.894 323.801 194.157C340.873 191.371 357.028 188.746 389.243 188.746C420.848 188.746 436.235 194.366 452.527 200.32C469.081 206.365 486.193 212.62 519.926 212.62C555.287 212.62 572.769 192.575 589.67 173.187C605.603 154.927 620.632 137.69 650.61 137.69C676.951 137.69 691.013 140.433 704.579 143.095C724.456 146.978 741.625 150.34 788.964 143.972C817.315 140.142 829.623 162.134 843.838 187.595C857.951 212.809 873.93 241.432 909.638 241.432Z" fill="url(#paint7_linear_1_609)"/>
<path d="M909.337 246.638C943.93 246.638 961.991 233.623 979.456 221.032C996.152 209.001 1011.93 197.631 1042.67 197.631C1074.84 197.631 1090.47 200.25 1107.02 203.009C1123.32 205.741 1140.18 208.56 1173.35 208.56C1209.31 208.56 1226.76 180.012 1243.62 152.399C1259.56 126.288 1274.65 101.623 1304.03 101.623C1335.06 101.623 1350.26 110.605 1366.35 120.113C1383.09 130.01 1400.4 140.244 1434.71 140.244C1471.82 140.244 1483.12 143.1 1498.76 147.053C1510.08 149.92 1524.17 153.48 1551.68 156.734C1579.52 160.015 1587.06 162.505 1595.79 165.383C1605.22 168.502 1615.92 172.03 1652.98 176.919C1670.13 179.183 1686.68 189.289 1704.19 199.949C1750 227.857 1807 262.59 1917.53 189.805C1918.14 189.401 1918.66 188.887 1919.07 188.292C1919.47 187.696 1919.75 187.031 1919.88 186.335C1920.01 185.639 1920 184.925 1919.84 184.234C1919.68 183.543 1919.38 182.889 1918.95 182.308C1918.52 181.728 1917.98 181.232 1917.35 180.85C1916.72 180.469 1916.01 180.208 1915.28 180.083C1914.54 179.958 1913.79 179.972 1913.05 180.123C1912.32 180.274 1911.63 180.56 1911.02 180.964C1806.73 249.612 1755.53 218.413 1710.36 190.876C1691.75 179.533 1674.17 168.825 1654.53 166.227C1618.58 161.483 1608.43 158.16 1599.52 155.191C1590.61 152.222 1582.1 149.441 1553.06 146.021C1526.36 142.874 1513.23 139.567 1501.71 136.641C1485.85 132.634 1473.32 129.466 1434.71 129.466C1403.68 129.466 1388.48 120.485 1372.39 110.976C1355.65 101.074 1338.34 90.8447 1304.03 90.8447C1268.07 90.8447 1250.62 119.393 1233.75 147.005C1217.82 173.117 1202.73 197.782 1173.35 197.782C1141.18 197.782 1125.55 195.162 1109 192.403C1092.7 189.676 1075.84 186.853 1042.67 186.853C1008.07 186.853 990.012 199.868 972.542 212.459C955.851 224.49 940.105 235.855 909.337 235.855C880.588 235.855 867.796 211.943 854.207 186.627C839.616 159.397 824.508 131.23 788.151 136.679C743.81 143.321 727.865 137.593 709.416 130.967C695.543 125.981 679.825 120.334 650.627 120.334C615.163 120.334 597.705 141.702 580.781 162.365C564.848 181.829 549.819 200.207 519.943 200.207C488.526 200.207 473.207 193.533 456.989 186.46C440.367 179.216 423.181 171.724 389.271 171.724C355.583 171.724 337.897 177.85 320.797 183.776C303.873 189.644 287.9 195.178 256.237 195.178C235.808 195.178 220.319 201.891 203.884 209.001C167.021 224.996 125.173 243.126 7.54312 180.657C6.89069 180.309 6.17204 180.087 5.4284 180.002C4.68476 179.917 3.93075 179.972 3.20963 180.164C2.4885 180.355 1.81446 180.679 1.22613 181.117C0.637803 181.555 0.146754 182.099 -0.218805 182.717C-0.586711 183.334 -0.822193 184.013 -0.911751 184.716C-1.00131 185.418 -0.94318 186.131 -0.740694 186.813C-0.538208 187.494 -0.195352 188.131 0.268212 188.687C0.731776 189.243 1.30694 189.707 1.96069 190.053C124.66 255.184 169.263 235.838 208.664 218.773C223.926 212.19 238.301 205.935 256.237 205.935C289.92 205.935 307.606 199.809 324.712 193.882C341.624 188.02 357.598 182.486 389.26 182.486C420.677 182.486 435.996 189.165 452.214 196.238C468.837 203.483 486.022 210.974 519.932 210.974C555.401 210.974 572.883 189.606 589.784 168.943C605.717 149.484 620.746 131.101 650.616 131.101C677.714 131.101 691.764 136.146 705.353 141.03C724.496 147.903 742.581 154.395 789.92 147.312C818.1 143.095 830.113 165.517 844.026 191.484C857.888 217.342 873.583 246.638 909.337 246.638Z" fill="url(#paint8_linear_1_609)"/>
<path d="M909.069 251.855C943.93 251.855 962.111 236.382 979.695 221.419C996.419 207.188 1012.22 193.748 1042.7 193.748C1074.83 193.748 1090.44 196.571 1106.96 199.562C1123.29 202.514 1140.17 205.564 1173.38 205.564C1209.33 205.564 1226.78 177.113 1243.65 149.63C1259.58 123.609 1274.67 99.0359 1304.06 99.0359C1335.4 99.0359 1350.72 106.162 1366.87 113.708C1383.52 121.469 1400.74 129.493 1434.74 129.493C1467.57 129.493 1479.65 136.485 1493.63 144.596C1506.49 152.05 1521.07 160.499 1552.81 163.909C1591.66 168.083 1593.84 168.357 1610.73 170.476C1619.56 171.578 1632.4 173.192 1656.55 176.118C1673.98 178.237 1690.73 188.267 1708.47 198.889C1753.71 225.985 1810.02 259.702 1917.5 189.843C1918.75 189.033 1919.6 187.788 1919.88 186.383C1920.15 184.978 1919.82 183.528 1918.97 182.351C1918.11 181.174 1916.79 180.368 1915.31 180.108C1913.82 179.849 1912.28 180.159 1911.04 180.969C1809.75 246.789 1759.19 216.509 1714.57 189.784C1695.73 178.49 1677.94 167.851 1658 165.436C1633.88 162.505 1621.05 160.897 1612.23 159.789C1595.24 157.638 1593.06 157.391 1554.1 153.201C1524.86 150.06 1511.99 142.611 1499.57 135.409C1484.78 126.804 1470.77 118.737 1434.7 118.737C1403.36 118.737 1388.04 111.605 1371.88 104.059C1355.23 96.2984 1338.02 88.2739 1304.02 88.2739C1268.06 88.2739 1250.62 116.725 1233.74 144.241C1217.81 170.261 1202.72 194.834 1173.34 194.834C1141.21 194.834 1125.59 192.011 1109.07 189.02C1092.75 186.068 1075.87 183.018 1042.66 183.018C1007.8 183.018 989.613 198.486 972.03 213.454C955.305 227.685 939.508 241.12 909.029 241.12C880.36 241.12 867.779 216.665 854.457 190.763C840.151 162.909 825.321 134.081 788.919 140.094C744.646 147.381 728.11 138.706 710.617 129.509C695.907 121.786 680.69 113.799 650.627 113.799C615.061 113.799 597.58 136.48 580.679 158.439C564.745 179.103 549.716 198.626 519.943 198.626C488.702 198.626 473.446 190.897 457.296 182.717C440.611 174.262 423.363 165.506 389.26 165.506C355.156 165.506 337.174 174.983 319.835 184.148C303.025 193.027 287.166 201.423 255.976 201.423C236.503 201.423 220.882 206.473 204.345 211.824C165.228 224.479 120.888 238.818 7.45211 180.63C6.79346 180.291 6.07043 180.079 5.32461 180.005C4.57879 179.931 3.82489 179.997 3.10622 180.2C2.38754 180.402 1.71828 180.737 1.13692 181.184C0.555564 181.632 0.07356 182.184 -0.281374 182.808C-0.640117 183.429 -0.865818 184.11 -0.945561 184.814C-1.0253 185.517 -0.957522 186.228 -0.746093 186.906C-0.534664 187.585 -0.183758 188.217 0.28657 188.767C0.756898 189.317 1.33741 189.774 1.99485 190.112C119.789 250.543 166.657 235.387 207.993 222.022C223.608 216.966 238.352 212.201 255.93 212.201C290.073 212.201 308.016 202.719 325.355 193.554C342.159 184.669 358.024 176.279 389.214 176.279C420.404 176.279 435.712 184.008 451.862 192.188C468.546 200.637 485.794 209.399 519.898 209.399C555.47 209.399 572.951 186.713 589.852 164.759C605.786 144.095 620.814 124.572 650.582 124.572C677.691 124.572 690.984 131.564 705.04 138.927C723.5 148.608 742.598 158.66 790.831 150.711C818.783 146.123 830.557 168.965 844.169 195.431C857.78 221.898 873.219 251.855 909.069 251.855Z" fill="url(#paint9_linear_1_609)"/>
<path d="M908.745 257.067C943.838 257.067 962.122 239.152 979.808 221.817C996.578 205.387 1012.42 189.865 1042.67 189.865C1074.76 189.865 1090.35 192.893 1106.86 196.098C1123.2 199.277 1140.1 202.552 1173.35 202.552C1209.3 202.552 1226.74 174.203 1243.62 146.785C1259.55 120.861 1274.64 96.3738 1304.03 96.3738C1335.7 96.3738 1351.12 101.634 1367.43 107.2C1383.93 112.842 1401.04 118.672 1434.71 118.672C1466.12 118.672 1478.24 129.569 1492.27 142.192C1505.61 154.196 1520.72 167.803 1553.95 171.03C1582.53 173.805 1592.64 173.181 1602.38 172.557C1613.29 171.874 1623.6 171.229 1660.13 175.247C1677.85 177.204 1694.8 187.181 1712.75 197.749C1757.43 224.039 1813.03 256.749 1917.46 189.811C1918.08 189.414 1918.61 188.906 1919.02 188.315C1919.43 187.724 1919.72 187.063 1919.86 186.368C1920 185.673 1919.99 184.959 1919.84 184.266C1919.69 183.573 1919.4 182.915 1918.98 182.33C1918.56 181.744 1918.02 181.243 1917.39 180.854C1916.77 180.465 1916.07 180.196 1915.33 180.062C1914.6 179.929 1913.84 179.934 1913.11 180.077C1912.38 180.219 1911.68 180.497 1911.06 180.894C1812.76 243.906 1762.83 214.524 1718.78 188.601C1699.71 177.382 1681.7 166.781 1661.45 164.544C1623.89 160.386 1612.58 161.096 1601.63 161.79C1592.34 162.371 1582.73 162.973 1555.11 160.29C1525.77 157.439 1513.32 146.231 1500.12 134.366C1485.65 121.34 1470.68 107.878 1434.68 107.878C1403.01 107.878 1387.59 102.618 1371.27 97.0461C1354.77 91.4097 1337.7 85.5796 1304 85.5796C1268.05 85.5796 1250.6 113.929 1233.73 141.347C1217.8 167.271 1202.71 191.758 1173.32 191.758C1141.23 191.758 1125.64 188.725 1109.13 185.519C1092.79 182.346 1075.89 179.065 1042.64 179.065C1007.55 179.065 989.26 196.986 971.574 214.32C954.804 230.751 938.967 246.273 908.716 246.273C880.116 246.273 867.744 221.263 854.69 194.781C840.652 166.346 826.118 136.942 789.67 143.482C745.136 151.458 728.679 140.078 711.26 128.02C696.498 117.801 681.231 107.233 650.598 107.233C614.936 107.233 597.46 131.225 580.565 154.433C564.631 176.306 549.591 196.97 519.915 196.97C488.85 196.97 473.645 188.192 457.546 178.904C440.81 169.223 423.506 159.257 389.26 159.257C354.684 159.257 336.577 172.106 319.067 184.535C302.314 196.426 286.488 207.662 255.72 207.662C237.51 207.662 222.145 211.12 205.893 214.777C164.324 224.13 117.217 234.731 7.3894 180.593C6.04992 179.936 4.48934 179.809 3.05084 180.24C1.61233 180.67 0.4137 181.623 -0.28146 182.889C-0.628565 183.516 -0.841368 184.202 -0.90765 184.907C-0.973932 185.611 -0.892388 186.322 -0.667718 186.997C-0.443049 187.672 -0.0796694 188.298 0.401622 188.84C0.882914 189.382 1.47265 189.829 2.13703 190.155C115.72 246.154 165.023 235.059 208.528 225.297C224.131 221.79 238.87 218.472 255.72 218.472C290.295 218.472 308.403 205.623 325.913 193.194C342.665 181.308 358.491 170.067 389.26 170.067C420.324 170.067 435.535 178.845 451.634 188.133C468.364 197.814 485.669 207.78 519.921 207.78C555.589 207.78 573.065 183.782 589.96 160.58C605.893 138.706 620.934 118.043 650.604 118.043C677.503 118.043 690.632 127.132 704.528 136.749C723.147 149.657 742.398 162.968 791.798 154.105C819.579 149.124 831.063 172.391 844.368 199.379C857.746 226.41 872.889 257.067 908.745 257.067Z" fill="url(#paint10_linear_1_609)"/>
<path d="M908.449 262.284C943.73 262.284 962.128 241.932 979.894 222.242C996.727 203.59 1012.63 185.976 1042.67 185.976C1074.72 185.976 1090.3 189.203 1106.78 192.64C1123.14 196.039 1140.06 199.557 1173.36 199.557C1209.3 199.557 1226.75 171.304 1243.62 143.983C1259.56 118.167 1274.64 93.7547 1304.04 93.7547C1336.07 93.7547 1351.63 97.1215 1368.11 100.682C1384.48 104.226 1401.4 107.889 1434.72 107.889C1465.3 107.889 1477.6 122.744 1491.83 139.949C1505.48 156.482 1521.01 175.22 1555.1 178.183C1584.82 180.776 1595.78 178.296 1606.38 175.897C1617.2 173.45 1628.38 170.923 1663.73 174.451C1681.74 176.247 1698.91 186.175 1717.09 196.685C1761.18 222.172 1816.05 253.904 1917.44 189.854C1918.06 189.462 1918.59 188.957 1919.01 188.369C1919.42 187.781 1919.71 187.122 1919.86 186.428C1920 185.735 1920.01 185.021 1919.86 184.327C1919.71 183.634 1919.42 182.974 1919.01 182.386C1918.59 181.798 1918.06 181.294 1917.44 180.901C1916.82 180.508 1916.12 180.234 1915.38 180.096C1914.65 179.958 1913.9 179.958 1913.16 180.096C1912.43 180.234 1911.73 180.507 1911.11 180.899C1815.77 241.136 1766.5 212.631 1723.04 187.493C1703.73 176.328 1685.48 165.786 1664.93 163.732C1627.63 160.01 1615.48 162.764 1603.73 165.421C1593.59 167.712 1584.01 169.879 1556.15 167.459C1526.96 164.915 1514.25 149.565 1500.81 133.312C1486.09 115.515 1470.86 97.1107 1434.72 97.1107C1402.7 97.1107 1387.13 93.7439 1370.65 90.1835C1354.28 86.6392 1337.35 82.9819 1304.04 82.9819C1268.1 82.9819 1250.65 111.229 1233.78 138.551C1217.84 164.366 1202.76 188.779 1173.36 188.779C1141.31 188.779 1125.73 185.552 1109.25 182.115C1092.89 178.716 1075.97 175.204 1042.67 175.204C1007.38 175.204 988.987 195.561 971.216 215.251C954.383 233.897 938.484 251.511 908.443 251.511C879.911 251.511 867.796 225.948 854.952 198.89C841.192 169.847 826.977 139.852 790.455 146.914C745.46 155.632 729.037 141.492 711.635 126.519C696.891 113.827 681.641 100.703 650.61 100.703C614.856 100.703 597.386 125.981 580.497 150.48C564.563 173.563 549.512 195.372 519.926 195.372C489.021 195.372 473.861 185.552 457.808 175.15C441.027 164.286 423.665 153.045 389.243 153.045C354.308 153.045 336.076 169.261 318.435 184.944C301.682 199.842 285.857 213.911 255.441 213.911C239.16 213.911 224.712 215.907 209.433 218.01C162.827 224.431 114.645 231.079 7.27563 180.55C6.6059 180.233 5.87665 180.045 5.12972 179.995C4.3828 179.946 3.63287 180.036 2.9229 180.261C2.21292 180.485 1.55688 180.841 0.992365 181.305C0.427852 181.77 -0.0340365 182.336 -0.366817 182.97C-0.702547 183.603 -0.902616 184.293 -0.955566 184.999C-1.00852 185.706 -0.913281 186.415 -0.675345 187.087C-0.437409 187.759 -0.0614453 188.379 0.430951 188.913C0.923347 189.447 1.52246 189.884 2.19393 190.198C112.761 242.223 164.995 235.021 211.077 228.675C225.947 226.626 239.985 224.689 255.463 224.689C290.398 224.689 308.636 208.474 326.271 192.791C343.024 177.893 358.855 163.823 389.266 163.823C420.171 163.823 435.359 173.644 451.384 184.04C468.165 194.91 485.527 206.145 519.949 206.145C555.709 206.145 573.179 180.867 590.068 156.369C606.002 133.28 621.053 111.476 650.633 111.476C677.253 111.476 690.239 122.652 703.987 134.479C722.726 150.614 742.114 167.287 792.76 157.466C818.436 152.491 829.475 171.45 844.544 203.284C857.678 230.944 872.53 262.284 908.449 262.284Z" fill="url(#paint11_linear_1_609)"/>
<path d="M908.153 267.501C943.639 267.501 962.094 244.718 979.939 222.689C996.846 201.81 1012.81 182.093 1042.67 182.093C1074.68 182.093 1090.24 185.536 1106.71 189.177C1123.09 192.802 1140.02 196.545 1173.35 196.545C1209.29 196.545 1226.73 168.4 1243.61 141.148C1259.54 115.408 1274.62 91.1302 1304.03 91.1302C1336.42 91.1302 1352.89 92.6307 1368.82 94.0882C1385.02 95.5673 1401.76 97.1001 1434.71 97.1001C1464.73 97.1001 1477.25 115.973 1491.76 137.825C1505.71 158.843 1521.52 182.664 1556.23 185.337C1586.83 187.698 1598.61 183.309 1609.99 179.071C1621.74 174.698 1632.84 170.557 1667.31 173.628C1685.64 175.241 1703.02 185.132 1721.43 195.588C1764.92 220.29 1819.05 251.027 1917.4 189.881C1918.66 189.097 1919.54 187.87 1919.85 186.471C1920.15 185.072 1919.86 183.615 1919.03 182.421C1918.2 181.228 1916.9 180.394 1915.42 180.105C1913.94 179.815 1912.4 180.093 1911.14 180.878C1818.78 238.307 1770.19 210.706 1727.33 186.353C1707.78 175.247 1689.31 164.759 1668.41 162.898C1631.23 159.591 1618.33 164.399 1605.84 169.046C1595.2 173.009 1585.15 176.753 1557.19 174.596C1528.17 172.364 1515.19 152.809 1501.42 132.107C1486.48 109.599 1471.04 86.3273 1434.72 86.3273C1402.32 86.3273 1385.85 84.8268 1369.92 83.3693C1353.73 81.8902 1336.98 80.3574 1304.03 80.3574C1268.1 80.3574 1250.65 108.507 1233.78 135.754C1217.84 161.489 1202.76 185.799 1173.36 185.799C1141.34 185.799 1125.79 182.357 1109.31 178.716C1092.94 175.091 1076 171.348 1042.68 171.348C1007.19 171.348 988.737 194.13 970.891 216.165C953.985 237.038 938.017 256.755 908.159 256.755C879.706 256.755 867.801 230.643 855.237 202.972C841.761 173.359 827.808 142.735 791.275 150.335C745.75 159.795 729.248 142.864 711.846 124.927C697.164 109.804 681.976 94.1689 650.65 94.1689C614.799 94.1689 597.352 120.781 580.468 146.516C564.535 170.815 549.466 193.77 519.966 193.77C489.237 193.77 474.089 182.906 458.076 171.401C441.26 159.322 423.87 146.833 389.283 146.833C354.041 146.833 335.712 166.4 317.986 185.315C301.17 203.246 285.305 220.166 255.224 220.166C242.136 220.166 229.503 220.968 217.257 221.742C166.702 224.942 114.423 228.245 7.2017 180.507C6.52486 180.204 5.79143 180.031 5.0435 179.996C4.29557 179.962 3.54783 180.067 2.84314 180.307C2.13844 180.546 1.49067 180.915 0.936918 181.391C0.38317 181.867 -0.0656508 182.442 -0.383815 183.083C-0.703935 183.723 -0.887219 184.417 -0.92314 185.124C-0.959061 185.831 -0.846918 186.538 -0.593148 187.204C-0.339377 187.87 0.051045 188.482 0.555696 189.005C1.06035 189.528 1.66929 189.952 2.34764 190.252C112.238 239.195 166.014 235.785 218.02 232.493C230.63 231.692 242.546 230.939 255.224 230.939C290.46 230.939 308.79 211.373 326.521 192.457C343.314 174.532 359.174 157.601 389.283 157.601C420.012 157.601 435.16 168.47 451.173 179.974C467.989 192.049 485.379 204.542 519.966 204.542C555.817 204.542 573.27 177.925 590.153 152.19C606.087 127.891 621.156 104.936 650.65 104.936C676.969 104.936 689.829 118.183 703.447 132.204C721.406 150.7 741.767 171.665 793.722 160.849C819.244 155.546 830.022 174.833 844.766 207.226C857.598 235.478 872.177 267.501 908.153 267.501Z" fill="url(#paint12_linear_1_609)"/>
<path d="M907.863 272.718C943.508 272.718 962.031 247.52 979.945 223.151C996.931 200.025 1012.95 178.21 1042.67 178.21C1074.64 178.21 1090.18 181.857 1106.63 185.74C1123.09 189.623 1139.98 193.565 1173.35 193.565C1209.28 193.565 1226.73 165.512 1243.61 138.384C1259.54 112.745 1274.62 88.5215 1304.03 88.5215C1336.8 88.5215 1353.46 87.9837 1369.57 87.4459C1385.58 86.908 1402.14 86.3702 1434.71 86.3702C1464.3 86.3702 1477.72 110.406 1491.91 135.851C1506.79 162.559 1522.19 190.171 1557.35 192.538C1588.73 194.63 1601.26 188.316 1613.38 182.201C1625.61 176.043 1637.15 170.213 1670.86 172.853C1689.52 174.311 1707.13 184.148 1725.78 194.539C1768.66 218.461 1822 248.23 1917.32 189.951C1918.59 189.181 1919.49 187.964 1919.82 186.567C1920.15 185.17 1919.87 183.708 1919.06 182.502C1918.24 181.296 1916.96 180.445 1915.48 180.136C1914 179.828 1912.45 180.087 1911.18 180.856C1821.78 235.516 1773.89 208.791 1731.62 185.213C1711.82 174.166 1693.11 163.699 1671.87 162.086C1634.81 159.176 1621.23 166.039 1608.09 172.665C1596.89 178.307 1586.31 183.642 1558.22 181.754C1529.35 179.818 1516.11 156.003 1502.03 130.795C1486.88 103.635 1471.23 75.5491 1434.75 75.5491C1401.97 75.5491 1385.31 76.0869 1369.2 76.6516C1353.19 77.1894 1336.63 77.7273 1304.06 77.7273C1268.13 77.7273 1250.68 105.775 1233.81 132.903C1217.87 158.547 1202.79 182.766 1173.38 182.766C1141.41 182.766 1125.87 179.119 1109.42 175.236C1092.97 171.353 1076.07 167.41 1042.71 167.41C1007.05 167.41 988.532 192.613 970.618 216.982C953.632 240.109 937.613 261.923 907.897 261.923C879.478 261.923 867.83 235.258 855.493 207.022C842.262 176.849 828.616 145.618 792.032 153.766C745.847 163.985 729.333 144.214 711.863 123.255C697.272 105.727 682.181 87.6126 650.627 87.6126C614.708 87.6126 597.255 115.531 580.383 142.525C564.449 168.045 549.364 192.145 519.943 192.145C489.34 192.145 474.243 180.232 458.252 167.62C441.414 154.336 423.995 140.594 389.26 140.594C353.756 140.594 335.353 163.49 317.559 185.632C300.703 206.608 284.781 226.405 254.963 226.405C248.703 226.405 242.443 226.464 236.241 226.523C179.221 227.061 120.279 227.599 7.07073 180.442C6.38598 180.156 5.64828 180.001 4.89985 179.985C4.15141 179.968 3.40696 180.092 2.70917 180.348C2.01139 180.605 1.37398 180.989 0.83345 181.478C0.29292 181.968 -0.140114 182.553 -0.440812 183.201C-0.75032 183.849 -0.920866 184.548 -0.942625 185.259C-0.964384 185.969 -0.836895 186.677 -0.56755 187.341C-0.298206 188.004 0.107659 188.611 0.626584 189.125C1.14551 189.64 1.76719 190.052 2.4557 190.338C117.906 238.426 178.1 237.882 236.338 237.328C242.517 237.269 248.703 237.215 254.946 237.215C290.449 237.215 308.852 214.32 326.647 192.178C343.502 171.202 359.419 151.405 389.243 151.405C419.846 151.405 434.944 163.312 450.934 175.924C467.772 189.214 485.191 202.95 519.926 202.95C555.851 202.95 573.304 175.037 590.176 148.038C606.11 122.523 621.195 98.423 650.61 98.423C676.633 98.423 688.799 113.02 702.889 129.929C720.917 151.561 741.357 176.086 794.621 164.259C819.944 158.649 830.505 178.242 844.903 211.184C857.53 240.012 871.819 272.718 907.863 272.718Z" fill="url(#paint13_linear_1_609)"/>
<path d="M907.567 277.935C943.366 277.935 961.952 250.333 979.928 223.614C997 198.255 1013.13 174.3 1042.67 174.3C1074.61 174.3 1090.13 178.151 1106.56 182.233C1122.99 186.315 1139.94 190.516 1173.35 190.516C1209.27 190.516 1226.72 162.549 1243.6 135.533C1259.53 109.986 1274.61 85.854 1304.03 85.854C1337.18 85.854 1354.02 83.1649 1370.31 80.5994C1386.87 77.9748 1402.51 75.4954 1434.71 75.4954C1464 75.4954 1477.68 103.828 1492.19 133.823C1507.32 165.168 1522.97 197.583 1558.55 199.616C1590.63 201.455 1603.87 193.162 1616.72 185.17C1629.45 177.237 1641.47 169.739 1674.51 171.961C1693.51 173.235 1711.36 183.013 1730.28 193.366C1772.51 216.493 1825.08 245.321 1917.36 189.903C1918.63 189.137 1919.53 187.923 1919.86 186.529C1920.19 185.134 1919.92 183.673 1919.11 182.467C1918.3 181.261 1917.02 180.409 1915.54 180.098C1914.07 179.786 1912.52 180.042 1911.24 180.808C1824.82 232.725 1777.62 206.86 1735.98 184.035C1715.9 173.042 1696.95 162.651 1675.32 161.199C1638.41 158.735 1623.54 167.991 1610.45 176.166C1598.65 183.519 1587.49 190.478 1559.23 188.849C1530.49 187.208 1516.92 159.096 1502.55 129.338C1487.18 97.5626 1471.34 64.7119 1434.73 64.7119C1401.58 64.7119 1384.73 67.4011 1368.45 69.9665C1351.88 72.5911 1336.24 75.0705 1304.04 75.0705C1268.12 75.0705 1250.67 103.038 1233.8 130.048C1217.86 155.6 1202.78 179.727 1173.37 179.727C1141.43 179.727 1125.91 175.876 1109.47 171.799C1093.04 167.723 1076.09 163.517 1042.69 163.517C1006.89 163.517 988.299 191.124 970.328 217.838C953.256 243.196 937.124 267.151 907.584 267.151C879.222 267.151 867.801 239.926 855.715 211.104C842.803 180.335 829.458 148.495 792.834 157.143C745.932 168.196 729.362 145.494 711.823 121.453C697.341 101.596 682.369 81.062 650.644 81.062C614.646 81.062 597.204 110.282 580.337 138.534C564.404 165.27 549.307 190.527 519.961 190.527C489.493 190.527 474.436 177.57 458.451 163.85C441.573 149.361 424.137 134.404 389.26 134.404C353.535 134.404 335.074 160.575 317.252 185.917C300.316 209.953 284.326 232.66 254.707 232.66C185.851 232.66 120.41 223.915 6.91713 180.388C6.22288 180.117 5.47872 179.979 4.7276 179.981C3.97648 179.983 3.23326 180.126 2.54078 180.401C1.8483 180.676 1.22027 181.078 0.692912 181.584C0.165557 182.089 -0.250684 182.688 -0.531822 183.347C-0.814672 184.002 -0.957752 184.704 -0.952883 185.412C-0.948013 186.12 -0.795291 186.82 -0.503446 187.472C-0.211601 188.124 0.213615 188.716 0.747789 189.212C1.28196 189.709 1.91459 190.1 2.60938 190.365C117.82 234.548 184.479 243.428 254.701 243.428C290.426 243.428 308.886 217.224 326.732 191.882C343.65 167.852 359.64 145.161 389.26 145.161C419.727 145.161 434.784 158.122 450.769 171.842C467.63 186.364 485.072 201.326 519.943 201.326C555.948 201.326 573.389 172.106 590.256 143.854C606.189 117.113 621.286 91.8616 650.627 91.8616C676.36 91.8616 688.435 108.416 702.411 127.59C720.496 152.378 740.993 180.491 795.56 167.62C820.689 161.704 831.04 181.604 845.068 215.1C857.456 244.546 871.46 277.935 907.567 277.935Z" fill="url(#paint14_linear_1_609)"/>
<path d="M907.271 283.151C943.201 283.151 961.849 253.151 979.882 224.141C997.051 196.523 1013.26 170.438 1042.67 170.438C1074.54 170.438 1090.07 174.494 1106.49 178.791C1122.9 183.088 1139.9 187.531 1173.35 187.531C1209.27 187.531 1226.72 159.676 1243.59 132.747C1259.53 107.292 1274.61 83.2668 1304.03 83.2668C1337.53 83.2668 1354.55 78.4263 1371.01 73.7794C1387.46 69.1326 1402.87 64.7439 1434.74 64.7439C1463.76 64.7439 1477.73 97.3902 1492.52 131.973C1507.88 167.937 1523.81 205.118 1559.7 206.828C1592.37 208.377 1606.36 198.137 1619.91 188.235C1633.16 178.554 1645.71 169.373 1678.11 171.197C1697.46 172.272 1715.56 182.023 1734.72 192.328C1778.47 215.88 1828.04 242.567 1917.3 189.994C1917.94 189.619 1918.49 189.131 1918.93 188.555C1919.36 187.979 1919.67 187.328 1919.84 186.639C1920.01 185.95 1920.03 185.236 1919.91 184.538C1919.79 183.84 1919.52 183.172 1919.13 182.572C1918.73 181.971 1918.21 181.451 1917.6 181.039C1916.99 180.628 1916.31 180.334 1915.58 180.174C1914.85 180.014 1914.09 179.992 1913.35 180.108C1912.61 180.224 1911.91 180.476 1911.27 180.851C1827.8 230.025 1783.35 206.129 1740.36 182.964C1720.01 172.02 1700.8 161.677 1678.78 160.445C1642.08 158.38 1626.6 169.718 1612.93 179.716C1599.95 189.214 1588.77 197.421 1560.27 196.066C1531.64 194.711 1517.77 162.274 1503.08 127.934C1487.54 91.587 1471.47 53.998 1434.74 53.998C1401.23 53.998 1384.21 58.8385 1367.76 63.4854C1351.31 68.1322 1335.89 72.5155 1304.03 72.5155C1268.11 72.5155 1250.66 100.37 1233.78 127.299C1217.85 152.754 1202.77 176.779 1173.35 176.779C1141.45 176.779 1125.95 172.724 1109.53 168.432C1093.11 164.14 1076.12 159.682 1042.67 159.682C1006.74 159.682 988.088 189.682 970.055 218.698C952.886 246.272 936.68 272.379 907.271 272.379C878.96 272.379 867.773 244.6 855.931 215.186C843.901 185.299 830.255 151.431 793.602 160.569C745.927 172.444 729.299 146.779 711.658 119.603C697.295 97.444 682.448 74.5324 650.598 74.5324C614.526 74.5324 597.107 105.044 580.24 134.554C564.273 162.521 549.187 188.924 519.92 188.924C489.584 188.924 474.521 174.913 458.576 160.085C441.698 144.386 424.24 128.149 389.237 128.149C353.318 128.149 334.812 157.643 316.916 186.164C299.901 213.287 283.831 238.904 254.399 238.904C189.174 238.904 114.178 217.423 6.6837 180.318C5.97988 180.075 5.23217 179.966 4.48351 179.996C3.73485 180.027 2.99997 180.197 2.32107 180.497C1.64217 180.797 1.03261 181.221 0.527386 181.744C0.0221659 182.267 -0.368745 182.879 -0.62295 183.545C-0.881078 184.211 -0.997489 184.918 -0.965446 185.626C-0.933403 186.334 -0.753565 187.03 -0.436264 187.672C-0.118963 188.314 0.329551 188.891 0.883463 189.369C1.43737 189.846 2.08578 190.216 2.79138 190.456C111.492 227.986 187.507 249.677 254.422 249.677C290.346 249.677 308.852 220.182 326.743 191.661C343.764 164.538 359.834 138.954 389.26 138.954C419.596 138.954 434.659 152.937 450.604 167.792C467.482 183.491 484.941 199.729 519.943 199.729C556.016 199.729 573.435 169.212 590.307 139.701C606.275 111.734 621.36 85.332 650.627 85.332C676.086 85.332 688.082 103.833 701.967 125.261C720.097 153.228 740.663 184.96 796.51 171.014C821.463 164.786 831.575 184.997 845.278 219.047C857.382 249.08 871.102 283.151 907.271 283.151Z" fill="url(#paint15_linear_1_609)"/>
<path d="M906.975 288.368C943.03 288.368 961.735 255.98 979.814 224.657C997.068 194.775 1013.39 166.571 1042.66 166.571C1074.53 166.571 1090.01 170.831 1106.4 175.343C1122.78 179.856 1139.84 184.54 1173.33 184.54C1209.24 184.54 1226.69 156.788 1243.57 129.956C1259.5 104.592 1274.58 80.6369 1304.01 80.6369C1337.85 80.6369 1355.02 73.6451 1371.6 66.8577C1387.85 60.2208 1403.2 53.9497 1434.69 53.9497C1463.52 53.9497 1477.76 90.9148 1492.83 130.053C1508.46 170.627 1524.61 212.572 1560.79 213.954C1594.04 215.202 1608.76 202.999 1622.97 191.193C1636.75 179.732 1649.8 168.911 1681.65 170.352C1701.39 171.24 1719.73 180.937 1739.16 191.204C1782.21 213.954 1831 239.743 1917.21 189.999C1917.85 189.631 1918.4 189.147 1918.84 188.575C1919.28 188.003 1919.6 187.355 1919.78 186.667C1919.95 185.98 1919.99 185.266 1919.87 184.567C1919.75 183.868 1919.49 183.197 1919.1 182.593C1918.71 181.989 1918.2 181.464 1917.6 181.047C1916.99 180.63 1916.31 180.33 1915.58 180.164C1914.85 179.998 1914.09 179.968 1913.36 180.078C1912.62 180.188 1911.91 180.434 1911.27 180.802C1830.75 227.266 1787.01 204.15 1744.72 181.797C1724.09 170.896 1704.61 160.596 1682.19 159.59C1645.72 157.977 1629.63 171.31 1615.44 183.099C1601.79 194.463 1589.97 204.263 1561.25 203.187C1532.71 202.111 1517.88 163.613 1503.54 126.385C1487.79 85.4827 1471.5 43.1877 1434.69 43.1877C1400.84 43.1877 1383.68 50.1795 1367.08 56.9723C1350.84 63.6038 1335.5 69.8803 1304.01 69.8803C1268.09 69.8803 1250.64 97.6269 1233.77 124.465C1217.83 149.829 1202.75 173.784 1173.33 173.784C1141.46 173.784 1125.98 169.524 1109.59 165.012C1093.21 160.499 1076.14 155.809 1042.67 155.809C1006.61 155.809 987.901 188.203 969.827 219.526C952.568 249.408 936.253 277.612 906.981 277.612C878.721 277.612 867.767 249.274 856.176 219.273C844.419 188.827 831.109 154.303 794.388 163.984C745.944 176.709 729.248 148.032 711.527 117.666C697.301 93.2436 682.568 67.9871 650.638 67.9871C614.503 67.9871 597.085 99.7944 580.241 130.558C564.222 159.746 549.147 187.31 519.943 187.31C489.727 187.31 474.681 172.251 458.747 156.31C441.875 139.406 424.388 121.926 389.26 121.926C353.17 121.926 334.63 154.691 316.688 186.38C299.611 216.606 283.421 245.148 254.166 245.148C206.934 245.148 149.164 226.233 82.2487 204.327C57.9898 196.389 32.9059 188.192 6.47895 180.243C5.76534 180.028 5.01372 179.947 4.26726 180.007C3.52081 180.067 2.79421 180.265 2.1291 180.591C1.46399 180.917 0.873489 181.364 0.391476 181.906C-0.0905376 182.448 -0.454592 183.074 -0.679775 183.75C-0.907816 184.424 -0.992848 185.134 -0.929987 185.839C-0.867127 186.544 -0.657606 187.231 -0.313453 187.859C0.030701 188.488 0.502723 189.046 1.07557 189.502C1.64841 189.958 2.31081 190.302 3.02478 190.516C29.3095 198.406 54.3479 206.591 78.5157 214.508C146.41 236.731 205.039 255.921 254.166 255.921C290.256 255.921 308.795 223.151 326.738 191.462C343.844 161.241 359.999 132.693 389.26 132.693C419.477 132.693 434.522 147.753 450.456 163.699C467.351 180.603 484.816 198.083 519.943 198.083C556.084 198.083 573.503 166.27 590.353 135.506C606.332 106.324 621.429 78.7598 650.627 78.7598C675.831 78.7598 687.746 99.1974 701.54 122.862C719.71 154.056 740.304 189.359 797.443 174.359C822.698 167.706 832.156 188.493 845.46 222.947C857.314 253.614 870.738 288.368 906.975 288.368Z" fill="url(#paint16_linear_1_609)"/>
<path d="M906.679 293.601C942.843 293.601 961.604 258.831 979.751 225.206C997.102 193.054 1013.49 162.683 1042.67 162.683C1074.49 162.683 1089.96 167.147 1106.34 171.874C1122.73 176.602 1139.83 181.555 1173.35 181.555C1209.26 181.555 1226.7 153.905 1243.58 127.164C1259.52 101.886 1274.6 78.0336 1304.03 78.0336C1338.17 78.0336 1355.46 68.826 1372.17 59.9141C1388.3 51.3088 1403.54 43.1876 1434.71 43.1876C1463.37 43.1876 1478.56 86.4184 1493.25 128.224C1509.12 173.402 1525.53 220.091 1561.96 221.118C1595.79 222.054 1611.18 207.882 1626.06 194.157C1640.39 180.953 1653.85 168.454 1685.24 169.54C1705.38 170.223 1723.98 179.883 1743.69 190.107C1786.01 212.077 1833.99 236.973 1917.16 190.042C1918.45 189.31 1919.39 188.121 1919.76 186.736C1920.13 185.352 1919.91 183.884 1919.13 182.658C1918.36 181.431 1917.1 180.545 1915.63 180.195C1914.17 179.845 1912.62 180.06 1911.32 180.791C1833.74 224.56 1790.75 202.246 1749.18 180.662C1728.25 169.804 1708.49 159.547 1685.65 158.773C1649.41 157.53 1632.79 172.858 1618.11 186.406C1604.32 199.121 1591.3 211.147 1562.3 210.313C1533.85 209.512 1518.72 166.442 1504.08 124.798C1488.15 79.3621 1471.64 32.3826 1434.72 32.3826C1400.58 32.3826 1383.28 41.5956 1366.58 50.5021C1350.45 59.1074 1335.21 67.2286 1304.04 67.2286C1268.13 67.2286 1250.68 94.8785 1233.81 121.614C1217.87 146.892 1202.79 170.75 1173.36 170.75C1141.54 170.75 1126.07 166.286 1109.68 161.559C1093.3 156.831 1076.2 151.878 1042.68 151.878C1006.52 151.878 987.752 186.648 969.605 220.279C952.26 252.431 935.872 282.796 906.69 282.796C878.477 282.796 867.266 252.554 856.42 223.307C844.942 192.339 831.922 157.229 795.184 167.373C745.932 180.964 729.128 149.232 711.345 115.628C697.233 88.9731 682.648 61.4147 650.638 61.4147C614.435 61.4147 597.028 94.5181 580.195 126.53C564.204 156.944 549.096 185.691 519.955 185.691C489.857 185.691 474.812 169.556 458.889 152.518C441.988 134.409 424.513 115.692 389.271 115.692C353.034 115.692 334.448 151.727 316.472 186.568C299.275 219.913 283.029 251.393 253.921 251.393C215.698 251.393 166.776 233.784 114.981 215.137C79.6082 202.407 43.0351 189.241 6.2001 180.178C5.47595 179.999 4.72136 179.956 3.97962 180.052C3.23787 180.148 2.52354 180.382 1.87755 180.74C1.23155 181.098 0.666611 181.572 0.21508 182.137C-0.236451 182.701 -0.565711 183.344 -0.75378 184.029C-0.943906 184.714 -0.989101 185.428 -0.886805 186.129C-0.784509 186.83 -0.53674 187.506 -0.157668 188.116C0.221404 188.727 0.724305 189.261 1.32217 189.687C1.92004 190.114 2.60115 190.424 3.32637 190.602C39.5524 199.535 75.8354 212.593 110.923 225.227C163.726 244.229 213.598 262.181 253.921 262.181C290.153 262.181 308.738 226.147 326.721 191.306C343.917 157.961 360.158 126.481 389.271 126.481C419.368 126.481 434.414 142.616 450.336 159.66C467.237 177.764 484.713 196.485 519.955 196.485C556.164 196.485 573.571 163.377 590.404 131.365C606.394 100.951 621.503 72.2035 650.638 72.2035C675.603 72.2035 687.439 94.5719 701.148 120.463C719.357 154.884 739.986 193.85 798.382 177.726C823.483 170.799 832.696 191.892 845.665 226.873C857.24 258.153 870.373 293.601 906.679 293.601Z" fill="url(#paint17_linear_1_609)"/>
<path d="M906.389 298.802C942.649 298.802 961.468 261.66 979.666 225.738C997.114 191.317 1013.59 158.784 1042.67 158.784C1074.45 158.784 1089.9 163.452 1106.28 168.395C1122.78 173.37 1139.79 178.511 1173.35 178.511C1209.25 178.511 1226.7 150.964 1243.58 124.32C1259.51 99.1492 1274.59 75.3771 1304.03 75.3771C1338.49 75.3771 1355.81 63.9535 1372.63 52.9065C1388.67 42.3435 1403.83 32.3668 1434.71 32.3668C1463.23 32.3668 1478.71 80.1315 1493.67 126.326C1509.79 176.064 1526.45 227.497 1563.1 228.234C1597.51 228.847 1613.53 212.637 1629.11 197.007C1643.96 182.05 1658.04 167.965 1688.86 168.68C1709.45 169.11 1728.35 178.748 1748.36 188.956C1789.9 210.141 1837.03 234.161 1917.13 190.032C1917.78 189.676 1918.35 189.203 1918.8 188.64C1919.25 188.077 1919.59 187.436 1919.78 186.752C1919.97 186.068 1920.01 185.355 1919.91 184.654C1919.81 183.953 1919.57 183.277 1919.19 182.666C1918.81 182.055 1918.31 181.52 1917.72 181.091C1917.12 180.663 1916.44 180.349 1915.72 180.169C1915 179.988 1914.24 179.944 1913.5 180.039C1912.76 180.134 1912.04 180.366 1911.4 180.722C1836.81 221.807 1794.6 200.277 1753.77 179.463C1732.51 168.631 1712.43 158.391 1689.12 157.907C1688.25 157.88 1687.38 157.869 1686.53 157.869C1652.32 157.869 1635.58 174.72 1620.76 189.601C1606.28 204.177 1592.67 218.02 1563.32 217.434C1534.94 216.864 1519.5 169.218 1504.57 123.142C1488.4 73.2042 1471.67 21.5671 1434.71 21.5671C1400.25 21.5671 1382.89 32.9907 1366.11 44.0377C1350.06 54.6007 1334.91 64.572 1304.03 64.572C1268.13 64.572 1250.68 92.1251 1233.8 118.764C1217.87 143.94 1202.79 167.706 1173.35 167.706C1141.57 167.706 1126.12 163.038 1109.74 158.095C1093.24 153.12 1076.23 147.979 1042.67 147.979C1006.41 147.979 987.588 185.127 969.383 221.048C951.942 255.47 935.468 287.997 906.389 287.997C878.209 287.997 867.249 257.169 856.648 227.352C845.443 195.851 832.747 160.123 795.964 170.783C745.887 185.267 728.992 150.431 711.118 113.541C697.136 84.6923 682.665 54.8642 650.627 54.8642C614.367 54.8642 596.971 89.2853 580.144 122.523C564.142 154.164 549.022 184.056 519.943 184.056C489.954 184.056 474.914 166.883 458.992 148.699C442.091 129.397 424.61 109.438 389.26 109.438C352.897 109.438 334.266 148.699 316.256 186.708C298.962 223.173 282.63 257.61 253.66 257.61C219.198 257.61 173.992 239.378 126.1 220.07C85.7882 203.816 44.0992 187.009 5.84159 180.055C5.10249 179.918 4.34197 179.921 3.60413 180.064C2.8663 180.207 2.16582 180.487 1.54332 180.888C0.920824 181.288 0.388679 181.802 -0.0222403 182.398C-0.43316 182.995 -0.714692 183.663 -0.850504 184.363C-0.992969 185.06 -0.988014 185.777 -0.835951 186.472C-0.683888 187.167 -0.387724 187.827 0.035485 188.413C0.458694 189 1.00056 189.501 1.62984 189.889C2.25912 190.277 2.96336 190.543 3.70194 190.672C40.7645 197.405 81.8788 213.981 121.639 230.014C170.617 249.763 216.882 268.42 253.66 268.42C290.022 268.42 308.653 229.159 326.669 191.15C343.957 154.686 360.289 120.248 389.265 120.248C419.255 120.248 434.295 137.421 450.217 155.6C467.118 174.903 484.599 194.861 519.949 194.861C556.215 194.861 573.611 160.44 590.438 127.202C606.44 95.5564 621.56 65.6692 650.633 65.6692C675.37 65.6692 687.701 91.1193 700.755 118.065C716.12 149.797 733.225 185.057 773.901 185.062C781.504 185.062 789.92 183.831 799.304 181.114C824.24 173.908 833.22 195.313 845.847 230.815C857.171 262.682 870.015 298.802 906.389 298.802Z" fill="url(#paint18_linear_1_609)"/>
<path d="M906.093 304.02C942.444 304.02 961.291 264.505 979.575 226.292C997.113 189.575 1013.68 154.901 1042.67 154.901C1074.41 154.901 1089.85 159.768 1106.21 164.926C1122.71 170.127 1139.78 175.505 1173.36 175.505C1209.25 175.505 1226.7 148.076 1243.58 121.512C1259.51 96.4332 1274.59 72.7417 1304.03 72.7417C1338.75 72.7417 1356.17 59.1077 1373.01 45.9201C1389 33.3994 1404.1 21.5725 1434.72 21.5725C1463.11 21.5725 1478.86 73.8927 1494.1 124.486C1511.22 181.319 1527.39 235.005 1564.24 235.376H1565.08C1599.38 235.376 1616.02 217.348 1632.11 199.906C1647.48 183.234 1661.99 167.513 1692.43 167.846C1713.44 168.061 1732.62 177.667 1752.93 187.837C1793.72 208.275 1839.95 231.402 1917.06 190.059C1917.71 189.709 1918.28 189.242 1918.74 188.683C1919.2 188.125 1919.54 187.486 1919.74 186.804C1919.94 186.122 1919.99 185.409 1919.9 184.707C1919.81 184.005 1919.57 183.327 1919.2 182.712C1918.83 182.097 1918.34 181.556 1917.74 181.122C1917.15 180.687 1916.48 180.367 1915.76 180.179C1915.03 179.991 1914.28 179.94 1913.54 180.027C1912.79 180.115 1912.08 180.34 1911.43 180.69C1839.77 219.128 1798.33 198.379 1758.26 178.318C1736.7 167.518 1716.33 157.342 1692.57 157.068H1691.33C1656.49 157.068 1639.72 175.247 1623.5 192.828C1608.3 209.297 1593.93 224.883 1564.31 224.604C1535.98 224.318 1520.25 172.068 1505.03 121.534C1487.88 64.5882 1471.68 10.7998 1434.68 10.7998C1399.96 10.7998 1382.53 24.4338 1365.7 37.6214C1349.71 50.1421 1334.61 61.969 1303.99 61.969C1268.1 61.969 1250.64 89.3983 1233.77 115.962C1217.83 141.041 1202.76 164.732 1173.32 164.732C1141.57 164.732 1126.13 159.859 1109.78 154.707C1093.28 149.506 1076.21 144.123 1042.63 144.123C1006.28 144.123 987.4 183.642 969.144 221.855C951.606 258.568 935.041 293.247 906.053 293.247C877.919 293.247 867.204 261.832 856.847 231.445C845.927 199.412 833.544 163.081 796.715 174.23C745.773 189.618 728.81 151.641 710.844 111.433C697.033 80.4219 682.71 48.3511 650.627 48.3511C614.31 48.3511 596.92 84.0362 580.11 118.543C564.096 151.421 548.965 182.475 519.943 182.475C490.057 182.475 475.016 164.243 459.1 144.935C442.193 124.443 424.712 103.247 389.26 103.247C352.778 103.247 334.113 145.768 316.057 186.891C299.44 224.759 282.255 263.892 253.386 263.892C220.922 263.892 174.891 243.255 130.368 223.302C86.9946 203.865 42.1644 183.761 5.36364 180.023C4.62044 179.948 3.869 180.013 3.15219 180.213C2.43538 180.413 1.76726 180.744 1.18599 181.188C0.604717 181.632 0.121686 182.18 -0.235538 182.8C-0.592762 183.421 -0.817193 184.102 -0.895974 184.804C-1.05539 186.222 -0.612649 187.641 0.334907 188.751C1.28246 189.86 2.65729 190.568 4.15724 190.72C38.9834 194.275 82.9657 214.003 125.48 233.037C173.241 254.448 218.355 274.665 253.381 274.665C289.863 274.665 308.528 232.144 326.584 191.021C343.201 153.163 360.386 114.02 389.254 114.02C419.141 114.02 434.21 132.258 450.103 151.561C467.004 172.057 484.486 193.248 519.938 193.248C556.26 193.248 573.651 157.563 590.461 123.05C606.48 90.1782 621.611 59.1077 650.627 59.1077C675.148 59.1077 687.405 86.5371 700.385 115.58C715.824 150.141 733.003 188.596 774.675 188.596C782.323 188.596 790.785 187.305 800.226 184.449C824.957 176.968 833.755 198.68 846.035 234.709C857.109 267.248 869.651 304.02 906.093 304.02Z" fill="url(#paint19_linear_1_609)"/>
<path d="M905.796 309.236C942.216 309.236 961.165 267.355 979.477 226.857C996.333 189.569 1013.76 151.023 1042.64 151.023C1074.34 151.023 1089.77 156.1 1106.11 161.467C1122.61 166.9 1139.68 172.514 1173.32 172.514C1209.21 172.514 1226.66 145.16 1243.54 118.731C1259.48 93.7438 1274.55 70.1438 1304 70.1438C1338.96 70.1438 1356.41 54.2994 1373.29 38.9766C1389.22 24.4928 1404.31 10.8104 1434.68 10.8104C1462.97 10.8104 1479 67.6806 1494.51 122.679C1511.91 184.293 1528.33 242.508 1565.38 242.508C1600.75 242.508 1618.22 222.312 1635.13 202.784C1651.06 184.384 1666.09 167.012 1696.05 167.012C1717.5 167.012 1736.96 176.586 1757.57 186.729C1797.57 206.403 1842.93 228.712 1917.01 190.085C1917.67 189.744 1918.25 189.283 1918.71 188.73C1919.18 188.177 1919.53 187.543 1919.74 186.863C1919.94 186.183 1920.01 185.472 1919.92 184.769C1919.84 184.066 1919.61 183.385 1919.25 182.766C1918.89 182.146 1918.4 181.6 1917.82 181.159C1917.23 180.717 1916.56 180.389 1915.84 180.193C1914.39 179.796 1912.83 179.961 1911.5 180.652C1842.75 216.487 1802.13 196.502 1762.83 177.172C1740.95 166.415 1720.29 156.234 1696.05 156.234C1660.68 156.234 1643.21 176.43 1626.3 195.964C1610.37 214.358 1595.34 231.735 1565.38 231.735C1537.09 231.735 1521.06 174.865 1505.55 119.866C1488.17 58.2201 1471.76 0 1434.71 0C1399.74 0 1382.29 15.8445 1365.42 31.1942C1349.48 45.6779 1334.4 59.3603 1304.03 59.3603C1268.14 59.3603 1250.68 86.709 1233.81 113.143C1217.87 138.131 1202.8 161.731 1173.35 161.731C1141.64 161.731 1126.21 156.659 1109.88 151.286C1093.38 145.86 1076.31 140.245 1042.67 140.245C1006.25 140.245 987.302 182.125 968.99 222.63C952.134 259.912 934.704 298.464 905.825 298.464C877.73 298.464 867.271 266.457 857.153 235.505C848.993 210.523 841.282 186.934 824.051 178.565C816.38 174.838 807.469 174.531 797.573 177.645C745.789 193.979 728.717 152.803 710.678 109.228C696.947 76.0815 682.749 41.8056 650.654 41.8056C614.28 41.8056 596.907 78.7814 580.091 114.536C564.05 148.646 548.913 180.862 519.942 180.862C490.152 180.862 475.112 161.564 459.19 141.132C442.289 119.447 424.808 97.03 389.259 97.03C352.674 97.03 333.969 142.789 315.851 187.036C299.149 227.911 281.872 270.147 253.106 270.147C221.808 270.147 175.937 247.558 131.551 225.684C85.9521 203.225 38.7945 180.001 4.73084 180.001C3.22161 180.001 1.77421 180.568 0.707021 181.576C-0.360165 182.585 -0.959717 183.953 -0.959717 185.379C-0.959717 186.806 -0.360165 188.174 0.707021 189.182C1.77421 190.191 3.22161 190.758 4.73084 190.758C36.0289 190.758 81.9005 213.347 126.281 235.22C171.885 257.675 219.037 280.898 253.106 280.898C289.685 280.898 308.396 235.145 326.515 190.898C343.222 150.022 360.499 107.787 389.264 107.787C419.054 107.787 434.095 127.084 450.017 147.511C466.918 169.201 484.399 191.613 519.948 191.613C556.328 191.613 573.701 154.642 590.511 118.887C606.535 84.7782 621.672 52.5568 650.637 52.5568C674.953 52.5568 687.142 81.9815 700.043 113.138C718.349 157.321 739.097 207.404 801.164 187.848C808.135 185.648 813.911 185.74 818.805 188.128C831.762 194.42 838.784 215.912 846.222 238.684C857.039 271.755 869.291 309.236 905.796 309.236Z" fill="url(#paint20_linear_1_609)"/>
</g>
</g>
<defs>
<linearGradient id="paint0_linear_1_609" x1="1919.96" y1="168.766" x2="-0.947233" y2="168.766" gradientUnits="userSpaceOnUse">
<stop stop-color="#14162D"/>
<stop offset="0.36" stop-color="#14192E"/>
<stop offset="0.5" stop-color="#151D30"/>
<stop offset="0.67" stop-color="#19172E"/>
<stop offset="1" stop-color="#1A142D"/>
</linearGradient>
<linearGradient id="paint1_linear_1_609" x1="1919.96" y1="171.336" x2="-0.947197" y2="171.336" gradientUnits="userSpaceOnUse">
<stop stop-color="#141833"/>
<stop offset="0.28" stop-color="#141B34"/>
<stop offset="0.44" stop-color="#162338"/>
<stop offset="0.5" stop-color="#17283B"/>
<stop offset="0.6" stop-color="#1B1E38"/>
<stop offset="0.75" stop-color="#1F1635"/>
<stop offset="1" stop-color="#201334"/>
</linearGradient>
<linearGradient id="paint2_linear_1_609" x1="1919.96" y1="173.929" x2="-0.947245" y2="173.929" gradientUnits="userSpaceOnUse">
<stop stop-color="#141B3A"/>
<stop offset="0.25" stop-color="#151E3B"/>
<stop offset="0.39" stop-color="#17263F"/>
<stop offset="0.5" stop-color="#1A3245"/>
<stop offset="0.52" stop-color="#1C2E44"/>
<stop offset="0.64" stop-color="#21203F"/>
<stop offset="0.77" stop-color="#25183C"/>
<stop offset="1" stop-color="#26153B"/>
</linearGradient>
<linearGradient id="paint3_linear_1_609" x1="1919.96" y1="173.897" x2="-0.947205" y2="173.897" gradientUnits="userSpaceOnUse">
<stop stop-color="#141F43"/>
<stop offset="0.23" stop-color="#152244"/>
<stop offset="0.36" stop-color="#172A48"/>
<stop offset="0.48" stop-color="#1B384D"/>
<stop offset="0.5" stop-color="#1C3C4F"/>
<stop offset="0.57" stop-color="#222D4A"/>
<stop offset="0.67" stop-color="#271F46"/>
<stop offset="0.79" stop-color="#2A1743"/>
<stop offset="1" stop-color="#2B1442"/>
</linearGradient>
<linearGradient id="paint4_linear_1_609" x1="1919.96" y1="171.595" x2="-0.94737" y2="171.595" gradientUnits="userSpaceOnUse">
<stop stop-color="#162249"/>
<stop offset="0.21" stop-color="#17254A"/>
<stop offset="0.34" stop-color="#192D4E"/>
<stop offset="0.44" stop-color="#1C3B55"/>
<stop offset="0.5" stop-color="#1F475A"/>
<stop offset="0.51" stop-color="#204459"/>
<stop offset="0.59" stop-color="#283052"/>
<stop offset="0.69" stop-color="#2D224D"/>
<stop offset="0.81" stop-color="#301A4A"/>
<stop offset="1" stop-color="#311749"/>
</linearGradient>
<linearGradient id="paint5_linear_1_609" x1="1919.96" y1="169.331" x2="-0.947208" y2="169.331" gradientUnits="userSpaceOnUse">
<stop stop-color="#1A2650"/>
<stop offset="0.2" stop-color="#1B2951"/>
<stop offset="0.32" stop-color="#1C3155"/>
<stop offset="0.42" stop-color="#1F3F5C"/>
<stop offset="0.5" stop-color="#235164"/>
<stop offset="0.53" stop-color="#264861"/>
<stop offset="0.61" stop-color="#2E345A"/>
<stop offset="0.7" stop-color="#332655"/>
<stop offset="0.81" stop-color="#361E52"/>
<stop offset="1" stop-color="#371B51"/>
</linearGradient>
<linearGradient id="paint6_linear_1_609" x1="1919.96" y1="167.125" x2="-0.947128" y2="167.125" gradientUnits="userSpaceOnUse">
<stop stop-color="#1D2A57"/>
<stop offset="0.19" stop-color="#1D2D58"/>
<stop offset="0.31" stop-color="#1F355C"/>
<stop offset="0.4" stop-color="#214363"/>
<stop offset="0.48" stop-color="#24576C"/>
<stop offset="0.5" stop-color="#255C6E"/>
<stop offset="0.55" stop-color="#2B4C69"/>
<stop offset="0.62" stop-color="#333862"/>
<stop offset="0.71" stop-color="#392A5E"/>
<stop offset="0.82" stop-color="#3C225B"/>
<stop offset="1" stop-color="#3D1F5A"/>
</linearGradient>
<linearGradient id="paint7_linear_1_609" x1="1919.96" y1="167.453" x2="-0.947332" y2="167.453" gradientUnits="userSpaceOnUse">
<stop stop-color="#212D5E"/>
<stop offset="0.18" stop-color="#21305F"/>
<stop offset="0.29" stop-color="#223863"/>
<stop offset="0.38" stop-color="#23466A"/>
<stop offset="0.46" stop-color="#255A74"/>
<stop offset="0.5" stop-color="#26677A"/>
<stop offset="0.56" stop-color="#304F71"/>
<stop offset="0.64" stop-color="#383B6A"/>
<stop offset="0.72" stop-color="#3E2D65"/>
<stop offset="0.83" stop-color="#422562"/>
<stop offset="1" stop-color="#432261"/>
</linearGradient>
<linearGradient id="paint8_linear_1_609" x1="1919.96" y1="168.749" x2="-0.94708" y2="168.749" gradientUnits="userSpaceOnUse">
<stop stop-color="#233065"/>
<stop offset="0.18" stop-color="#233366"/>
<stop offset="0.28" stop-color="#243B6A"/>
<stop offset="0.37" stop-color="#254970"/>
<stop offset="0.45" stop-color="#275D7A"/>
<stop offset="0.5" stop-color="#297082"/>
<stop offset="0.51" stop-color="#2B6C81"/>
<stop offset="0.57" stop-color="#365277"/>
<stop offset="0.65" stop-color="#3F3E70"/>
<stop offset="0.73" stop-color="#45306B"/>
<stop offset="0.83" stop-color="#492868"/>
<stop offset="1" stop-color="#4A2567"/>
</linearGradient>
<linearGradient id="paint9_linear_1_609" x1="1919.96" y1="170.046" x2="-0.947282" y2="170.046" gradientUnits="userSpaceOnUse">
<stop stop-color="#24346B"/>
<stop offset="0.17" stop-color="#24376C"/>
<stop offset="0.27" stop-color="#253F70"/>
<stop offset="0.36" stop-color="#274D77"/>
<stop offset="0.43" stop-color="#296180"/>
<stop offset="0.5" stop-color="#2B7A8C"/>
<stop offset="0.52" stop-color="#306E88"/>
<stop offset="0.59" stop-color="#3C547E"/>
<stop offset="0.66" stop-color="#454076"/>
<stop offset="0.74" stop-color="#4B3271"/>
<stop offset="0.84" stop-color="#4F2A6E"/>
<stop offset="1" stop-color="#50276D"/>
</linearGradient>
<linearGradient id="paint10_linear_1_609" x1="1919.96" y1="171.337" x2="-0.947281" y2="171.337" gradientUnits="userSpaceOnUse">
<stop stop-color="#273773"/>
<stop offset="0.17" stop-color="#273A74"/>
<stop offset="0.27" stop-color="#274278"/>
<stop offset="0.35" stop-color="#28507F"/>
<stop offset="0.42" stop-color="#286488"/>
<stop offset="0.49" stop-color="#297E94"/>
<stop offset="0.5" stop-color="#298497"/>
<stop offset="0.54" stop-color="#337090"/>
<stop offset="0.6" stop-color="#405686"/>
<stop offset="0.67" stop-color="#4A427E"/>
<stop offset="0.75" stop-color="#513479"/>
<stop offset="0.84" stop-color="#552C76"/>
<stop offset="1" stop-color="#562975"/>
</linearGradient>
<linearGradient id="paint11_linear_1_609" x1="1919.96" y1="172.633" x2="-0.947347" y2="172.633" gradientUnits="userSpaceOnUse">
<stop stop-color="#263A7A"/>
<stop offset="0.16" stop-color="#263D7B"/>
<stop offset="0.26" stop-color="#27457F"/>
<stop offset="0.34" stop-color="#285386"/>
<stop offset="0.41" stop-color="#2A678F"/>
<stop offset="0.47" stop-color="#2C819B"/>
<stop offset="0.5" stop-color="#2D8EA1"/>
<stop offset="0.55" stop-color="#3A7196"/>
<stop offset="0.61" stop-color="#46588D"/>
<stop offset="0.68" stop-color="#4F4385"/>
<stop offset="0.75" stop-color="#563580"/>
<stop offset="0.85" stop-color="#5A2D7D"/>
<stop offset="1" stop-color="#5B2A7C"/>
</linearGradient>
<linearGradient id="paint12_linear_1_609" x1="1919.96" y1="173.929" x2="-0.947205" y2="173.929" gradientUnits="userSpaceOnUse">
<stop stop-color="#253C80"/>
<stop offset="0.16" stop-color="#253F81"/>
<stop offset="0.25" stop-color="#264785"/>
<stop offset="0.33" stop-color="#28558C"/>
<stop offset="0.4" stop-color="#2A6995"/>
<stop offset="0.46" stop-color="#2D83A1"/>
<stop offset="0.5" stop-color="#2F98AB"/>
<stop offset="0.51" stop-color="#3293A9"/>
<stop offset="0.56" stop-color="#40739D"/>
<stop offset="0.62" stop-color="#4D5893"/>
<stop offset="0.69" stop-color="#56448B"/>
<stop offset="0.76" stop-color="#5D3685"/>
<stop offset="0.85" stop-color="#612E82"/>
<stop offset="1" stop-color="#622B81"/>
</linearGradient>
<linearGradient id="paint13_linear_1_609" x1="1919.96" y1="174.128" x2="-0.947297" y2="174.128" gradientUnits="userSpaceOnUse">
<stop stop-color="#243E87"/>
<stop offset="0.15" stop-color="#244188"/>
<stop offset="0.24" stop-color="#25498C"/>
<stop offset="0.32" stop-color="#275793"/>
<stop offset="0.39" stop-color="#296B9C"/>
<stop offset="0.45" stop-color="#2C85A8"/>
<stop offset="0.5" stop-color="#30A3B6"/>
<stop offset="0.52" stop-color="#3794B0"/>
<stop offset="0.58" stop-color="#4674A3"/>
<stop offset="0.63" stop-color="#525999"/>
<stop offset="0.7" stop-color="#5B4591"/>
<stop offset="0.77" stop-color="#62378B"/>
<stop offset="0.86" stop-color="#662F88"/>
<stop offset="1" stop-color="#672C87"/>
</linearGradient>
<linearGradient id="paint14_linear_1_609" x1="1919.96" y1="171.342" x2="-0.947278" y2="171.342" gradientUnits="userSpaceOnUse">
<stop stop-color="#21428E"/>
<stop offset="0.15" stop-color="#21458F"/>
<stop offset="0.24" stop-color="#234D93"/>
<stop offset="0.31" stop-color="#255B9A"/>
<stop offset="0.38" stop-color="#296FA3"/>
<stop offset="0.44" stop-color="#2D8AB0"/>
<stop offset="0.49" stop-color="#32AABE"/>
<stop offset="0.5" stop-color="#33ADC0"/>
<stop offset="0.54" stop-color="#3F93B6"/>
<stop offset="0.59" stop-color="#4D73A9"/>
<stop offset="0.64" stop-color="#59599F"/>
<stop offset="0.71" stop-color="#624497"/>
<stop offset="0.77" stop-color="#683691"/>
<stop offset="0.86" stop-color="#6C2E8E"/>
<stop offset="1" stop-color="#6D2B8D"/>
</linearGradient>
<linearGradient id="paint15_linear_1_609" x1="1919.96" y1="168.556" x2="-0.947285" y2="168.556" gradientUnits="userSpaceOnUse">
<stop stop-color="#1D4594"/>
<stop offset="0.15" stop-color="#1E4895"/>
<stop offset="0.23" stop-color="#1F5099"/>
<stop offset="0.31" stop-color="#225EA0"/>
<stop offset="0.37" stop-color="#2772AA"/>
<stop offset="0.43" stop-color="#2C8DB6"/>
<stop offset="0.48" stop-color="#33ADC5"/>
<stop offset="0.5" stop-color="#35B7CA"/>
<stop offset="0.55" stop-color="#4593BB"/>
<stop offset="0.6" stop-color="#5373AD"/>
<stop offset="0.65" stop-color="#5F58A2"/>
<stop offset="0.71" stop-color="#68449A"/>
<stop offset="0.78" stop-color="#6E3694"/>
<stop offset="0.86" stop-color="#722E90"/>
<stop offset="1" stop-color="#732B8F"/>
</linearGradient>
<linearGradient id="paint16_linear_1_609" x1="1919.96" y1="165.77" x2="-0.947325" y2="165.77" gradientUnits="userSpaceOnUse">
<stop stop-color="#1C489C"/>
<stop offset="0.14" stop-color="#1D4B9D"/>
<stop offset="0.23" stop-color="#1F53A1"/>
<stop offset="0.3" stop-color="#2361A8"/>
<stop offset="0.36" stop-color="#2876B1"/>
<stop offset="0.42" stop-color="#2F90BE"/>
<stop offset="0.48" stop-color="#37B0CD"/>
<stop offset="0.5" stop-color="#3DBED3"/>
<stop offset="0.55" stop-color="#4D98C2"/>
<stop offset="0.6" stop-color="#5A78B3"/>
<stop offset="0.66" stop-color="#645DA6"/>
<stop offset="0.72" stop-color="#6D499D"/>
<stop offset="0.78" stop-color="#733B96"/>
<stop offset="0.86" stop-color="#763392"/>
<stop offset="1" stop-color="#773091"/>
</linearGradient>
<linearGradient id="paint17_linear_1_609" x1="1919.96" y1="162.984" x2="-0.947223" y2="162.984" gradientUnits="userSpaceOnUse">
<stop stop-color="#234B9F"/>
<stop offset="0.14" stop-color="#244EA0"/>
<stop offset="0.23" stop-color="#2756A4"/>
<stop offset="0.3" stop-color="#2B64AB"/>
<stop offset="0.36" stop-color="#3279B4"/>
<stop offset="0.42" stop-color="#3B93C1"/>
<stop offset="0.48" stop-color="#45B3D0"/>
<stop offset="0.5" stop-color="#4BC3D8"/>
<stop offset="0.55" stop-color="#589EC5"/>
<stop offset="0.6" stop-color="#627EB6"/>
<stop offset="0.65" stop-color="#6B63A9"/>
<stop offset="0.71" stop-color="#724F9F"/>
<stop offset="0.78" stop-color="#764198"/>
<stop offset="0.86" stop-color="#793994"/>
<stop offset="1" stop-color="#7A3693"/>
</linearGradient>
<linearGradient id="paint18_linear_1_609" x1="1919.96" y1="160.198" x2="-0.947156" y2="160.198" gradientUnits="userSpaceOnUse">
<stop stop-color="#2850A2"/>
<stop offset="0.14" stop-color="#2953A3"/>
<stop offset="0.23" stop-color="#2C5BA7"/>
<stop offset="0.3" stop-color="#3269AE"/>
<stop offset="0.37" stop-color="#3A7DB8"/>
<stop offset="0.42" stop-color="#4598C5"/>
<stop offset="0.48" stop-color="#52B8D4"/>
<stop offset="0.5" stop-color="#58C7DC"/>
<stop offset="0.55" stop-color="#61A4CA"/>
<stop offset="0.6" stop-color="#6A84BA"/>
<stop offset="0.65" stop-color="#7169AD"/>
<stop offset="0.71" stop-color="#7655A3"/>
<stop offset="0.78" stop-color="#7A479B"/>
<stop offset="0.86" stop-color="#7C3F97"/>
<stop offset="1" stop-color="#7D3C96"/>
</linearGradient>
<linearGradient id="paint19_linear_1_609" x1="1919.96" y1="157.412" x2="-0.947206" y2="157.412" gradientUnits="userSpaceOnUse">
<stop stop-color="#2E53A4"/>
<stop offset="0.14" stop-color="#2F56A5"/>
<stop offset="0.23" stop-color="#335EAA"/>
<stop offset="0.3" stop-color="#3A6CB1"/>
<stop offset="0.37" stop-color="#4380BB"/>
<stop offset="0.42" stop-color="#509BC9"/>
<stop offset="0.48" stop-color="#5FBBD9"/>
<stop offset="0.5" stop-color="#66CAE1"/>
<stop offset="0.55" stop-color="#6DA7CE"/>
<stop offset="0.6" stop-color="#7387BD"/>
<stop offset="0.65" stop-color="#776CAF"/>
<stop offset="0.71" stop-color="#7B58A4"/>
<stop offset="0.78" stop-color="#7E4A9D"/>
<stop offset="0.86" stop-color="#804298"/>
<stop offset="1" stop-color="#803F97"/>
</linearGradient>
<linearGradient id="paint20_linear_1_609" x1="1919.96" y1="154.626" x2="-0.948267" y2="154.626" gradientUnits="userSpaceOnUse">
<stop stop-color="#3157A6"/>
<stop offset="0.15" stop-color="#325AA7"/>
<stop offset="0.23" stop-color="#3762AC"/>
<stop offset="0.3" stop-color="#3F70B3"/>
<stop offset="0.37" stop-color="#4A85BE"/>
<stop offset="0.43" stop-color="#589FCC"/>
<stop offset="0.48" stop-color="#69BFDD"/>
<stop offset="0.5" stop-color="#71CDE5"/>
<stop offset="0.54" stop-color="#75ABD2"/>
<stop offset="0.59" stop-color="#798BC1"/>
<stop offset="0.65" stop-color="#7C70B2"/>
<stop offset="0.71" stop-color="#7F5CA7"/>
<stop offset="0.78" stop-color="#814E9F"/>
<stop offset="0.86" stop-color="#82469A"/>
<stop offset="1" stop-color="#824399"/>
</linearGradient>
</defs>
</svg>
